<svg width="99" height="71" viewBox="0 0 99 71" fill="none" xmlns="http://www.w3.org/2000/svg">
<g clip-path="url(#clip0_70_16)">
<path d="M98.1993 0.477417C98.07 0.391358 97.9264 0.333984 97.7396 0.333984C83.5166 0.348328 30.2451 0.348328 16.0221 0.348328C13.0626 0.348328 10.1174 0.391358 7.15786 0.420044C6.52573 0.420044 5.8936 0.463074 5.26146 0.477417C4.773 0.506104 4.50003 0.678223 4.3851 1.15155C4.27016 1.63922 4.18396 2.15558 4.1696 2.6576C4.1265 3.91981 4.1265 5.16767 4.11213 6.41554C4.11213 6.54463 4.11213 6.67372 4.11213 6.84584C2.84787 6.84584 1.59797 6.84584 0.333703 6.84584C0.333703 7.73512 0.333703 8.56703 0.333703 9.44198C1.5836 9.44198 2.81913 9.44198 4.0834 9.44198C4.0834 11.1632 4.0834 12.87 4.0834 14.6056C2.84787 14.6056 1.59797 14.6056 0.333703 14.6056C0.333703 15.4805 0.333703 16.3268 0.333703 17.1874C1.5836 17.1874 2.81913 17.1874 4.0834 17.1874C4.0834 18.9086 4.0834 20.6011 4.0834 22.3366C2.84787 22.3366 1.61233 22.3366 0.333703 22.3366C0.333703 23.2115 0.333703 24.0578 0.333703 24.9327C1.5836 24.9327 2.81913 24.9327 4.0834 24.9327C4.0834 26.7256 4.0834 28.4755 4.0834 30.2541C2.8335 30.2541 1.59797 30.2541 0.333703 30.2541C0.333703 31.0717 0.333703 31.8605 0.333703 32.6925C1.5836 32.6925 2.8335 32.6925 4.0834 32.6925C4.0834 34.471 4.0834 36.2209 4.0834 37.9995C2.8335 37.9995 1.59797 37.9995 0.333703 37.9995C0.333703 38.817 0.333703 39.6059 0.333703 40.4378C1.5836 40.4378 2.81913 40.4378 4.0834 40.4378C4.0834 42.2307 4.0834 43.9806 4.0834 45.7592C2.8335 45.7592 1.59797 45.7592 0.333703 45.7592C0.333703 46.6198 0.333703 47.466 0.333703 48.341C1.5836 48.341 2.8335 48.341 4.0834 48.341C4.0834 50.0765 4.0834 51.769 4.0834 53.4902C2.8335 53.4902 1.59797 53.4902 0.333703 53.4902C0.333703 54.3508 0.333703 55.1971 0.333703 56.072C1.56923 56.072 2.80477 56.072 4.06903 56.072C4.06903 57.8076 4.06903 59.5144 4.06903 61.25C2.81913 61.25 1.5836 61.25 0.319336 61.25C0.319336 62.1249 0.319336 62.9568 0.319336 63.8317C1.56923 63.8317 2.81913 63.8317 4.09776 63.8317C4.09776 64.0326 4.09776 64.2047 4.09776 64.3624C4.14086 65.9115 4.1696 67.4463 4.2127 68.9953C4.2127 69.2105 4.28453 69.4256 4.37073 69.6121C4.5144 69.9707 4.78736 70.1858 5.18963 70.2002C6.4108 70.2289 7.64633 70.2575 8.86749 70.3006C8.98243 70.3006 9.09736 70.3293 9.21229 70.3436C22.5158 70.3436 74.8535 70.3436 88.157 70.3436C88.272 70.3293 88.3869 70.3006 88.5018 70.3006C91.5763 70.2862 94.6508 70.2862 97.7252 70.2862C98.0844 70.2862 98.3286 70.2002 98.5298 69.9133C98.6447 69.7555 98.8027 69.6264 98.9464 69.483C98.9464 68.9093 98.9464 68.3355 98.9464 67.7475V1.19458V0.477417H98.1993ZM62.7424 20.5437C63.4751 21.2752 64.2509 21.978 65.0986 22.7669C65.0986 22.3796 65.0842 22.0497 65.0986 21.7342C65.1273 21.0027 65.6014 20.515 66.2335 20.515C66.8657 20.5293 67.3254 21.0314 67.3398 21.7629C67.3541 22.6952 67.311 23.6131 67.3685 24.5455C67.3972 24.904 67.5553 25.32 67.7851 25.5925C68.288 26.1949 68.8914 26.7113 69.4373 27.2707C69.9401 27.7871 69.9545 28.4755 69.5235 28.9202C69.0925 29.3648 68.3885 29.3505 67.8713 28.8341C66.018 26.9982 64.1647 25.1479 62.3258 23.2976C62.1247 23.0968 62.0241 22.8099 61.8373 22.5374C61.4494 22.896 61.2483 23.0681 61.0759 23.2402C59.2082 25.1049 57.3406 26.9695 55.4729 28.8341C55.0275 29.2788 54.5247 29.3792 53.9788 29.0636C53.4903 28.7911 53.4041 28.3178 53.5478 27.8157C53.6196 27.5862 53.792 27.3567 53.9788 27.1846C56.2056 24.9471 58.4468 22.7095 60.688 20.4863C61.392 19.7548 61.9954 19.7978 62.7424 20.5437ZM65.0986 33.051C65.0986 31.9466 65.0411 30.8565 65.1273 29.7808C65.156 29.3792 65.4721 28.8915 65.8025 28.6763C66.0468 28.5186 66.5927 28.6333 66.88 28.8198C67.1243 28.9775 67.311 29.4078 67.311 29.7234C67.3541 31.2008 67.3398 32.6638 67.3254 34.1411C67.311 34.8726 66.8513 35.3173 66.0899 35.3316C63.116 35.346 60.1421 35.346 57.1682 35.3316C56.378 35.3316 55.947 34.8726 55.947 34.0694C55.9326 32.6494 55.9326 31.2151 55.947 29.7951C55.9614 29.0349 56.4642 28.5186 57.1107 28.5329C57.7285 28.5616 58.1738 29.0636 58.1882 29.8095C58.2026 30.8709 58.1882 31.9323 58.1882 33.0654C60.53 33.051 62.7712 33.051 65.0986 33.051ZM77.6263 55.6561C77.6119 58.3239 75.5431 60.4037 72.8709 60.4037C62.2827 60.4037 51.6945 60.4037 41.0919 60.4037C38.1467 60.4037 35.1872 60.4037 32.242 60.4037C29.4262 60.4037 27.3861 58.3526 27.3861 55.5413C27.3861 42.116 27.3861 28.6907 27.3861 15.2654C27.3861 12.2389 29.3543 10.2595 32.3713 10.2595C40.4454 10.2595 48.5051 10.2595 56.5791 10.2595C57.8434 10.2595 58.1882 10.6038 58.2026 11.8516C58.2026 12.7122 58.2026 13.5585 58.2026 14.4191C58.2026 15.3801 57.7716 15.9395 57.0532 15.9108C56.3636 15.8965 55.9614 15.3514 55.947 14.4478C55.947 13.8741 55.947 13.3147 55.9326 12.7409C55.9326 12.6979 55.9039 12.6549 55.8752 12.5258C52.8582 12.5258 49.8555 12.5258 46.7667 12.5258C46.7667 12.784 46.7667 13.0421 46.7667 13.286C46.7667 16.0255 46.7667 18.7508 46.7667 21.4903C46.7667 22.2649 46.2639 22.7812 45.6174 22.7669C44.9853 22.7382 44.5543 22.2362 44.5255 21.5047C44.5255 21.3899 44.5255 21.2609 44.5255 21.1461C44.5255 18.5356 44.5255 15.9251 44.5255 13.3003C44.5255 13.0708 44.5255 12.827 44.5255 12.5401C44.2526 12.5258 44.0227 12.4971 43.7928 12.4971C39.8707 12.4971 35.9343 12.4971 32.0122 12.4971C30.4318 12.4971 29.6417 13.2716 29.6417 14.8494C29.6417 21.0314 29.6417 27.199 29.6417 33.3809C29.6417 33.6104 29.6417 33.8543 29.6417 34.1411C34.5982 34.1411 39.4972 34.1411 44.5255 34.1411C44.5255 33.926 44.5255 33.7108 44.5255 33.4813C44.5255 31.8892 44.5255 30.2971 44.5255 28.705C44.5255 27.8731 44.9996 27.3424 45.6749 27.3568C46.3214 27.3711 46.7667 27.9018 46.7667 28.6907C46.7667 33.1084 46.7811 37.5261 46.7667 41.9439C46.7667 42.7328 46.3214 43.2635 45.6749 43.2778C44.9996 43.3065 44.5255 42.7614 44.5255 41.9295C44.5112 40.1223 44.5255 38.3294 44.5255 36.4791C39.5547 36.4791 34.6413 36.4791 29.6273 36.4791C29.6273 36.7373 29.6273 36.9954 29.6273 37.2393C29.6273 43.3208 29.6273 49.4024 29.6273 55.484C29.6273 57.4633 30.2882 58.1375 32.2708 58.1375C36.0779 58.1375 39.8851 58.1375 43.6923 58.1375C43.9221 58.1375 44.1664 58.1375 44.5112 58.1375C44.5112 57.8506 44.5112 57.5924 44.5112 57.3486C44.5112 54.6664 44.5112 51.9842 44.5112 49.2876C44.5112 48.6996 44.6548 48.1976 45.2439 47.9537C46.0197 47.6382 46.7523 48.2119 46.7523 49.1872C46.7667 51.7547 46.7523 54.3221 46.7523 56.8896C46.7523 57.2625 46.7523 57.6498 46.7523 58.0657C48.2896 58.0657 49.7693 58.0657 51.364 58.0657C51.364 57.8219 51.364 57.5637 51.364 57.3199C51.364 54.609 51.364 51.8981 51.364 49.1872C51.364 48.6135 51.5364 48.0972 52.1111 47.9681C52.4559 47.8963 52.9731 47.9681 53.203 48.1976C53.4616 48.4557 53.5909 48.9434 53.6052 49.345C53.634 51.9842 53.6196 54.6233 53.6196 57.2625C53.6196 57.5207 53.6196 57.7789 53.6196 58.1375C53.9357 58.1375 54.1799 58.1375 54.4385 58.1375C60.6018 58.1375 66.7651 58.1375 72.9284 58.1375C74.6093 58.1375 75.3563 57.3773 75.3707 55.6991C75.3707 51.8264 75.3707 47.9537 75.3707 44.081C75.3707 43.8515 75.3707 43.6077 75.3707 43.2778C75.0546 43.2778 74.7673 43.2778 74.4943 43.2778C67.3254 43.2778 60.1708 43.2778 53.0018 43.2778C52.8151 43.2778 52.6139 43.2921 52.4272 43.2635C51.8094 43.1917 51.3353 42.6754 51.3784 42.116C51.4359 41.4992 51.8094 41.112 52.4272 41.0546C52.8438 41.0116 53.2892 41.0403 53.7058 41.0403C60.6593 41.0403 67.6127 41.0403 74.5518 41.0403C74.7817 41.0403 75.0259 41.0403 75.3564 41.0403C75.3564 40.739 75.3564 40.4809 75.3564 40.237C75.3564 31.8749 75.3564 23.5127 75.3564 15.1506C75.3564 13.1712 74.6955 12.4971 72.7129 12.4971C70.5723 12.4971 68.4316 12.4971 66.1904 12.4971C66.1904 13.2143 66.2048 13.8884 66.1904 14.5769C66.1761 15.3944 65.702 15.9395 65.0411 15.9251C64.3946 15.9108 63.9636 15.3801 63.9492 14.5912C63.9349 13.5872 63.9349 12.5975 63.9492 11.5935C63.9636 10.7042 64.3659 10.2739 65.2566 10.2595C67.8713 10.2452 70.5004 10.2309 73.1152 10.2595C75.615 10.3026 77.6263 12.4397 77.6263 15.0215C77.6263 27.5002 77.6263 39.9789 77.6263 52.4432C77.6263 53.5189 77.6263 54.5947 77.6263 55.6561Z" fill="#F5F5F5"/>
</g>
<defs>
<clipPath id="clip0_70_16">
<rect width="98.6414" height="69.9666" fill="white" transform="translate(0.333984 0.333984)"/>
</clipPath>
</defs>
</svg>
