<svg width="124" height="83" viewBox="0 0 124 83" fill="none" xmlns="http://www.w3.org/2000/svg">
<g clip-path="url(#clip0_70_6)">
<path d="M10.0195 38.4402C6.42212 44.7379 8.79804 53.1848 14.9554 56.7668C14.6375 59.2825 14.3196 61.7483 13.9682 64.3973C10.6553 62.9478 7.25871 62.0482 5.18396 58.5828C0.147664 50.1859 -1.09049 41.739 3.86214 32.9256C4.33063 32.0926 5.16723 31.2929 6.02055 30.8764C27.0358 20.8801 48.0845 10.9337 69.1164 0.95411C70.1538 0.454295 70.9904 0.454295 72.0445 0.904128C87.3207 7.43504 102.614 13.916 117.907 20.3969C118.459 20.6302 119.011 20.8467 119.546 21.1133C121.086 21.8464 121.889 23.0459 121.855 24.762C121.839 26.3447 120.918 27.261 119.546 27.8941C103.735 35.3414 87.9231 42.8219 72.1114 50.2859C68.0791 52.1852 64.0467 54.1011 59.9976 55.9504C57.0528 57.2833 54.1247 57.3666 51.0962 56.0337C37.9617 50.3358 24.7937 44.7046 11.6257 39.0567C11.107 38.8401 10.6051 38.6735 10.0195 38.4402ZM59.2446 11.0337C60.1314 11.4336 60.6166 11.6835 61.1019 11.8834C66.1884 13.9826 71.3251 15.9486 76.3111 18.2477C78.8209 19.4139 80.9291 19.5306 83.3553 18.1477C85.6308 16.8482 88.1238 15.9152 90.5667 14.799C90.3827 14.5657 90.3492 14.4491 90.2655 14.4158C83.6732 11.8334 77.0808 9.23438 70.4717 6.66866C70.1873 6.55204 69.769 6.53538 69.5013 6.652C66.1884 8.05148 62.8755 9.48429 59.2446 11.0337ZM30.0475 71.2614C38.1792 74.6602 46.3109 78.1089 54.4761 81.441C56.8854 82.424 59.3283 82.1241 61.6875 81.0078C73.885 75.2933 86.0826 69.5954 98.2801 63.8642C105.86 60.3155 113.406 56.7335 120.985 53.1681C122.274 52.5683 123.227 51.702 123.395 50.2192C123.562 48.7364 123.144 47.4536 121.922 46.5539C120.634 45.6043 119.312 45.9375 117.99 46.5372C98.2299 55.5839 78.4696 64.6305 58.7092 73.7105C57.8224 74.127 57.0862 74.1437 56.1994 73.7605C51.6316 71.8279 47.0471 69.9619 42.4793 68.0626C38.4971 66.4132 34.5149 64.7805 30.2985 63.0311C30.081 65.7301 29.8635 68.2625 29.646 70.9949C29.7129 71.0615 29.8802 71.1781 30.0475 71.2614ZM23.6058 51.4021C23.2209 51.2522 22.5516 51.4521 22.1668 51.702C18.5025 54.2511 16.5951 57.7831 16.5616 62.2481C16.5449 66.8964 14.9219 70.7283 11.0234 73.4606C10.6553 73.7105 10.3708 74.077 10.0362 74.3769C10.7222 74.6102 11.2744 74.6435 11.7596 74.5102C14.0351 73.8438 16.3107 73.1774 18.5527 72.411C20.2594 71.8279 20.7781 71.9945 21.0123 73.8271C21.2298 75.5432 21.2131 77.2759 21.3302 78.9919C21.3804 79.7416 21.4473 80.4913 21.5143 81.2411C21.6481 81.2577 21.7987 81.2744 21.9326 81.291C23.8567 77.5424 26.1992 73.9771 27.27 69.8286C27.5879 68.5458 27.8054 67.1963 27.7553 65.8801C27.6381 63.4976 28.3576 61.4151 29.6125 59.4658C30.5829 57.9663 31.5534 56.4836 32.4569 55.0841C29.9973 54.0511 26.8183 52.685 23.6058 51.4021Z" fill="#F5F5F5"/>
</g>
<defs>
<clipPath id="clip0_70_6">
<rect width="122.728" height="81.4365" fill="white" transform="translate(0.716797 0.587891)"/>
</clipPath>
</defs>
</svg>
