<svg width="53" height="57" viewBox="0 0 53 57" fill="none" xmlns="http://www.w3.org/2000/svg">
<path d="M29.0744 41.0797C28.7016 41.5086 28.3377 41.9184 27.9885 42.3406C27.9369 42.4024 27.9332 42.5275 27.9472 42.6165C28.1709 44.0429 28.4026 45.4686 28.6285 46.895C28.7946 47.947 28.9518 48.9997 29.1187 50.0517C29.3748 51.6715 29.6383 53.2907 29.8923 54.9106C29.9565 55.3218 29.9956 55.7367 30.0517 56.1494C30.0797 56.3554 30.0148 56.4797 29.7956 56.5091C29.3468 56.5702 28.8979 56.6938 28.4491 56.6923C26.9507 56.6879 25.4522 56.6393 23.9538 56.6077C23.9043 56.607 23.8556 56.6026 23.8069 56.5959C23.1728 56.5113 23.1558 56.4701 23.2599 55.8544C23.5256 54.286 23.7773 52.7147 24.0327 51.1448C24.2867 49.5867 24.5384 48.0279 24.7901 46.4698C24.9953 45.2008 25.2005 43.9326 25.4028 42.6628C25.416 42.5812 25.4338 42.4664 25.391 42.4142C25.0647 42.0169 24.731 41.6248 24.3775 41.2519C24.3435 41.2158 24.1317 41.2938 24.046 41.3688C23.3322 41.9882 22.6258 42.6172 21.9216 43.2469C21.2462 43.8509 20.6269 43.7097 20.294 42.8644C19.7108 41.3843 19.1321 39.9034 18.5512 38.4226C18.3644 37.9466 18.3607 37.9341 17.8551 38.0731C15.0073 38.8581 12.2333 39.8321 9.66963 41.3232C8.32323 42.1059 7.07427 43.0115 6.17519 44.3173C5.73598 44.9558 5.52634 45.6687 5.39274 46.4308C5.15727 47.7675 4.88931 49.1012 4.56157 50.418C4.14525 52.0909 3.66102 53.7475 3.19228 55.4071C3.1074 55.708 2.97231 55.9993 2.82911 56.2789C2.61652 56.6953 2.16181 56.8976 1.64436 56.8402C1.23985 56.796 0.785885 56.4525 0.720189 56.0516C0.678852 55.8007 0.730523 55.516 0.80803 55.2674C1.66725 52.5212 2.38252 49.7383 2.94943 46.9178C3.09854 46.1748 3.20114 45.4171 3.4189 44.6947C3.88542 43.1498 4.92696 41.9934 6.12942 40.9694C7.6958 39.6349 9.49912 38.6926 11.3704 37.8686C13.6225 36.877 15.9654 36.1575 18.3408 35.5263C18.8221 35.3983 19.2989 35.2041 19.7352 34.9636C21.1916 34.161 21.7452 32.6941 21.2979 31.033C21.1753 30.5769 20.9649 30.2334 20.6025 29.9171C19.0029 28.5223 18.0337 26.7177 17.3797 24.7366C17.1236 23.9605 16.9486 23.1572 16.7515 22.362C16.6851 22.0927 16.5847 21.9316 16.2821 21.8389C15.0493 21.463 13.8255 21.0511 12.7197 20.3669C12.4289 20.1874 12.1469 19.9822 11.8981 19.7497C10.8219 18.7426 10.9179 17.3905 12.1056 16.5114C12.6813 16.0855 13.3294 15.8353 14.0285 15.725C14.4086 15.6654 14.5688 15.5448 14.5843 15.1071C14.6721 12.6566 15.1586 10.2959 16.3965 8.1405C17.5687 6.09909 19.2281 4.62118 21.489 3.86493C21.8168 3.75532 22.0301 3.60893 22.1763 3.25435C22.7188 1.94196 23.7485 1.17983 25.1326 0.920885C26.5528 0.655317 27.9524 0.684743 29.2353 1.466C29.9609 1.90812 30.4776 2.53783 30.75 3.34483C30.8504 3.6413 31.0142 3.78181 31.3258 3.86788C34.1987 4.6609 36.1459 6.50296 37.3078 9.20277C38.0976 11.0382 38.4564 12.9678 38.4859 14.957C38.4918 15.3255 38.6239 15.441 38.9657 15.4815C39.8485 15.5852 40.7085 15.7905 41.4806 16.2539C42.8403 17.0683 42.9665 18.5911 41.674 19.504C40.9543 20.0123 40.1121 20.3691 39.2883 20.7024C38.5413 21.0047 37.744 21.185 36.9682 21.4167C36.7151 21.4925 36.5379 21.5741 36.4752 21.9051C36.0234 24.2945 35.2985 26.5853 33.7897 28.5488C33.3963 29.0608 32.9379 29.5316 32.4596 29.9678C32.154 30.2466 31.9377 30.5254 31.8742 30.9403C31.7059 32.0423 31.6756 33.1208 32.3695 34.0801C32.9711 34.9113 33.8525 35.3101 34.8106 35.5484C37.4842 36.2149 40.0988 37.0491 42.5908 38.2335C44.5868 39.1825 46.4743 40.297 47.9971 41.9331C49.049 43.063 49.6779 44.3776 49.9827 45.9129C50.4662 48.3464 51.0929 50.7512 51.6768 53.1642C51.8584 53.9123 52.1123 54.6428 52.3087 55.3873C52.4762 56.0221 52.1263 56.643 51.5366 56.8181C50.9379 56.9961 50.2928 56.6791 50.0942 56.0501C49.7635 55.0003 49.435 53.9476 49.1759 52.8787C48.6659 50.7755 48.1085 48.6767 47.7513 46.5456C47.4125 44.5262 46.2071 43.2124 44.6525 42.0993C42.8218 40.7877 40.7823 39.8792 38.669 39.1317C37.6289 38.7639 36.5637 38.4675 35.5148 38.1232C35.2136 38.0246 35.0741 38.1107 34.9605 38.3976C34.3529 39.9336 33.7336 41.4652 33.1077 42.9939C32.8338 43.6626 32.199 43.8149 31.6505 43.3404C30.8888 42.682 30.1432 42.0059 29.3903 41.3387C29.3039 41.2614 29.208 41.1879 29.0744 41.0797ZM34.57 18.4204C34.5744 18.3468 34.5796 18.274 34.584 18.2004C34.6246 17.4825 34.6246 17.4729 33.899 17.4648C30.2229 17.4265 26.5469 17.3787 22.8701 17.367C21.5806 17.3625 20.2895 17.4427 19 17.5045C18.4884 17.5288 18.4862 17.5545 18.5231 18.0518C18.5475 18.3814 18.5866 18.7102 18.6124 19.0398C18.7866 21.2122 19.1993 23.3301 20.1094 25.3259C21.2676 27.8661 23.0731 29.5669 26.0103 29.7559C27.4637 29.8494 28.8544 29.6279 30.1144 28.8511C31.4712 28.0154 32.3562 26.7795 33.008 25.3642C34.0215 23.1624 34.4009 20.8135 34.57 18.4204ZM26.4893 15.0431C26.4893 15.0453 26.4893 15.0475 26.4893 15.0504C27.0799 15.0504 27.6704 15.0313 28.2594 15.0578C28.6079 15.074 28.7252 14.9776 28.7215 14.6134C28.7045 13.1311 28.7252 11.6481 28.7201 10.1657C28.7141 8.36561 28.7016 6.56622 28.6802 4.76684C28.6706 3.98264 28.3074 3.40663 27.584 3.26097C26.9595 3.13518 26.2804 3.08515 25.6574 3.19035C24.5701 3.37352 24.1567 3.97381 24.1678 5.08022C24.1723 5.49512 24.2158 5.91003 24.2165 6.32493C24.2254 9.09463 24.2328 11.8636 24.2247 14.6333C24.2239 14.9592 24.3236 15.0607 24.6447 15.0497C25.2596 15.0283 25.8752 15.0431 26.4893 15.0431ZM31.0438 10.649C31.0401 10.649 31.0357 10.649 31.032 10.649C31.032 11.9732 31.0453 13.2966 31.0231 14.6201C31.0165 14.9989 31.1515 15.1034 31.5088 15.1107C32.9224 15.1394 34.336 15.1814 35.7488 15.2432C36.0928 15.2586 36.2109 15.1689 36.1873 14.8209C36.0898 13.3606 35.8772 11.9217 35.3509 10.5497C34.6209 8.64589 33.4539 7.12899 31.4859 6.34994C31.0866 6.19178 31.0445 6.21385 31.0438 6.64052C31.043 7.97719 31.0438 9.31312 31.0438 10.649ZM21.8655 6.27196C21.7171 6.31684 21.6337 6.33229 21.5592 6.36613C20.3272 6.92375 19.3654 7.79548 18.642 8.92323C17.4572 10.7704 17.0402 12.8413 16.9073 14.9908C16.8888 15.2866 17.0579 15.2983 17.2801 15.2873C18.6907 15.2167 20.1013 15.1431 21.5127 15.0923C21.8367 15.0806 21.9275 14.9688 21.9253 14.6546C21.9054 11.9982 21.9002 9.34107 21.8891 6.68466C21.8891 6.56475 21.8758 6.44631 21.8655 6.27196ZM23.8364 31.7275C23.7951 31.8231 23.7685 31.8562 23.7685 31.8886C23.7655 32.8795 23.6068 33.8358 23.172 34.7392C23.141 34.8032 23.2377 34.9871 23.3219 35.0371C24.3782 35.6588 25.4404 36.2716 26.5115 36.8689C26.6266 36.9329 26.8348 36.9447 26.9463 36.8829C27.9442 36.3311 28.929 35.7559 29.9196 35.1916C30.1336 35.0695 30.1477 34.943 30.0458 34.7135C29.8679 34.314 29.7114 33.8954 29.6199 33.4695C29.5003 32.9119 29.4523 32.3388 29.3659 31.7142C27.5294 32.2182 25.6862 32.2424 23.8364 31.7275ZM20.0415 37.467C20.5095 38.669 20.9723 39.8762 21.4529 41.0768C21.5437 41.3048 21.6824 41.1592 21.7946 41.0599C22.8207 40.1477 23.8452 39.234 24.8772 38.3277C25.0846 38.1452 25.0831 38.0393 24.8336 37.9003C24.0416 37.4582 23.2459 37.0212 22.4789 36.5386C22.1135 36.3091 21.8633 36.2995 21.5082 36.5768C21.0705 36.9182 20.5553 37.1617 20.0415 37.467ZM31.8978 41.2423C31.9635 41.1481 32.0167 41.0944 32.0425 41.0304C32.4802 39.9557 32.9202 38.8816 33.3387 37.7995C33.3697 37.72 33.2752 37.5317 33.1874 37.478C32.6352 37.1411 32.0735 36.8174 31.5007 36.5158C31.3885 36.4569 31.1877 36.4591 31.0763 36.5209C30.2717 36.9638 29.4848 37.4383 28.6817 37.8834C28.3923 38.0437 28.4093 38.1563 28.6418 38.3586C29.5003 39.1075 30.3455 39.8725 31.1966 40.6302C31.4225 40.8318 31.652 41.0282 31.8978 41.2423ZM16.2806 19.3002C16.2496 18.8324 16.2267 18.3615 16.1772 17.8937C16.1721 17.8414 16.0126 17.7598 15.9337 17.7686C15.4605 17.8231 14.9881 17.8885 14.5201 17.9753C14.2787 18.0202 14.0462 18.1151 13.7878 18.1938C14.0838 18.5903 15.8104 19.3444 16.2806 19.3002ZM39.5762 18.0835C39.568 18.0202 39.5592 17.9577 39.5511 17.8944C38.7657 17.8047 37.9817 17.7083 37.1949 17.6347C37.1174 17.6274 36.9646 17.7502 36.9535 17.8275C36.9025 18.1975 36.8878 18.5719 36.8546 19.0288C37.843 18.7875 38.7354 18.5079 39.5762 18.0835ZM42.4269 52.8633C42.7362 52.8596 42.8344 52.9663 42.8278 53.2664C42.8071 54.1117 42.8019 54.9569 42.8086 55.8022C42.81 56.0023 42.8433 56.2237 42.9348 56.3981C43.1068 56.7247 43.5024 56.8865 43.8073 56.8115C44.248 56.7034 44.5181 56.3929 44.5248 55.9052C44.5418 54.7046 44.5373 53.5033 44.5395 52.3027C44.541 51.4332 44.296 51.1647 43.4434 51.1595C43.1341 51.1573 43.0433 51.0514 43.047 50.7527C43.0603 49.6625 43.0536 48.5715 43.0507 47.4806C43.0492 46.9516 42.7613 46.6184 42.311 46.6132C41.8475 46.6074 41.5721 46.9185 41.5692 47.4659C41.564 48.4215 41.5699 49.3778 41.5633 50.3334C41.5566 51.2655 41.7161 51.1367 40.7085 51.1559C40.4295 51.161 40.3446 51.0573 40.3498 50.7924C40.3623 50.1797 40.3675 49.5669 40.3498 48.9541C40.3365 48.4818 40.0102 48.1802 39.5776 48.1941C39.151 48.2081 38.8764 48.5002 38.8697 48.9695C38.8616 49.5455 38.8469 50.1223 38.8712 50.6975C38.8867 51.0529 38.7664 51.1625 38.4113 51.1581C36.997 51.1419 35.5827 51.1536 34.1691 51.1536C33.4111 51.1536 33.1261 51.4369 33.1217 52.1924C33.1151 53.4172 33.0951 54.6428 33.1055 55.8677C33.1077 56.0839 33.1807 56.3363 33.3085 56.5062C33.507 56.7688 33.8089 56.9042 34.1581 56.7924C34.5641 56.6622 34.7995 56.3775 34.8121 55.9523C34.8379 55.0592 34.8586 54.1646 34.8475 53.2716C34.8438 52.9398 34.9509 52.8581 35.2697 52.8625C36.4501 52.8802 37.6304 52.8692 38.8114 52.8692C40.0168 52.8692 41.2223 52.8773 42.4269 52.8633Z" fill="white"/>
</svg>
