<svg width="87" height="71" viewBox="0 0 87 71" fill="none" xmlns="http://www.w3.org/2000/svg">
<g clip-path="url(#clip0_70_13)">
<path d="M71.1481 70.4085C67.085 70.4085 63.106 70.4085 59.057 70.4085C59.057 68.9081 59.057 67.4354 59.057 65.9349C48.8433 65.9349 38.6857 65.9349 28.444 65.9349C28.444 67.4215 28.444 68.8942 28.444 70.4085C24.381 70.4085 20.388 70.4085 16.353 70.4085C16.353 70.1862 16.353 69.9917 16.353 69.7972C16.353 67.1714 16.367 64.5317 16.339 61.9058C16.339 61.5724 16.2409 61.1973 16.0587 60.9194C13.2286 56.3485 13.5369 49.7353 16.8573 45.7757C17.5158 44.9977 18.3565 44.3586 19.1691 43.7334C19.5193 43.4556 19.7015 43.1916 19.7715 42.747C20.3039 39.2181 21.4108 35.8976 23.6524 33.0495C25.1516 31.1322 27.001 29.6873 29.4668 29.1871C30.1113 29.0621 30.7838 29.0065 31.4423 29.0065C39.4983 28.9926 47.5544 29.0482 55.5964 28.9788C59.113 28.9371 61.775 30.382 63.8626 33.0495C65.9502 35.7031 67.071 38.7874 67.6174 42.0662C67.7575 42.9415 68.0517 43.525 68.8223 44.0669C71.5684 45.998 72.8573 48.8045 73.2356 52.0416C73.6139 55.2787 73.0815 58.3492 71.2882 61.1417C71.1621 61.3362 71.1481 61.6141 71.1481 61.8503C71.134 64.4761 71.1481 67.1158 71.1481 69.7417C71.1481 69.9639 71.1481 70.1723 71.1481 70.4085ZM23.5123 41.9829C24.5351 41.9273 25.4038 41.8578 26.2864 41.8578C34.0482 41.8439 41.8101 41.8439 49.5719 41.8578C49.9502 41.8578 50.1743 41.8439 50.2164 41.3438C50.4265 38.2734 53.0185 35.7587 56.0728 35.6197C59.3092 35.4669 62.1113 37.6204 62.6857 40.7047C62.7558 41.1076 62.7838 41.5105 62.8398 41.969C63.2041 41.9829 63.5404 41.9968 63.9607 42.0245C63.2742 39.1208 62.3074 36.4533 60.2059 34.3277C59.043 33.1606 57.67 32.591 55.9747 32.591C47.8066 32.6327 39.6244 32.6188 31.4563 32.591C29.9291 32.591 28.6682 33.1189 27.5754 34.1193C26.2724 35.3141 25.3757 36.7868 24.7453 38.4123C24.2689 39.5515 23.9327 40.7325 23.5123 41.9829ZM43.7295 57.3627C47.4283 57.3627 51.113 57.3627 54.8118 57.3627C55.064 57.3627 55.3162 57.3488 55.5544 57.2933C56.1008 57.1404 56.465 56.6403 56.437 56.0984C56.409 55.5705 56.0307 55.1259 55.4843 55.0287C55.2601 54.987 55.022 54.9731 54.7838 54.9731C47.4563 54.9731 40.1148 54.9731 32.7873 54.9731C32.6052 54.9731 32.423 54.9731 32.2549 54.987C31.5684 55.0703 31.106 55.5566 31.12 56.1818C31.1341 56.807 31.6104 57.2933 32.2829 57.3627C32.4651 57.3766 32.6472 57.3766 32.8153 57.3766C36.444 57.3627 40.0868 57.3627 43.7295 57.3627ZM43.7155 53.945C47.3862 53.945 51.071 53.945 54.7418 53.945C54.9799 53.945 55.2041 53.945 55.4423 53.9033C56.0307 53.7922 56.437 53.3198 56.451 52.7502C56.451 52.1666 56.0307 51.6804 55.4143 51.5692C55.2742 51.5414 55.1341 51.5414 54.9799 51.5414C47.5263 51.5414 40.0587 51.5414 32.6052 51.5414C31.6945 51.5414 31.1341 51.9999 31.12 52.7363C31.12 53.4587 31.6805 53.9311 32.5911 53.945C32.7172 53.945 32.8433 53.945 32.9694 53.945C36.5421 53.945 40.1288 53.945 43.7155 53.945ZM24.381 49.9715C22.1954 49.9715 20.444 51.7082 20.444 53.8616C20.444 56.0151 22.2514 57.8073 24.423 57.7795C26.5946 57.7517 28.346 56.0012 28.332 53.8477C28.3039 51.6804 26.5666 49.9715 24.381 49.9715ZM63.1481 49.9715C60.9624 49.9576 59.2111 51.6804 59.1971 53.8338C59.1831 56.0012 60.9764 57.7795 63.1481 57.7656C65.3057 57.7517 67.071 55.9873 67.071 53.8477C67.099 51.7221 65.3337 49.9854 63.1481 49.9715ZM60.36 41.8161C60.3039 40.3573 59.6735 39.2737 58.4545 38.5373C57.1095 37.7176 55.3722 37.8288 54.1113 38.8013C53.1306 39.5654 52.6122 40.5519 52.5981 41.83C55.2181 41.8161 57.754 41.8161 60.36 41.8161ZM3.14106 2.85937C30.2514 2.85937 57.2917 2.85937 84.402 2.85937C84.402 25.3943 84.402 47.8875 84.402 70.4085C85.2426 70.4085 85.9992 70.4085 86.7698 70.4085C86.7698 47.0817 86.7698 23.7827 86.7698 0.469727C58.0903 0.469727 29.4248 0.469727 0.759277 0.469727C0.759277 23.8104 0.759277 47.1234 0.759277 70.4363C1.54387 70.4363 2.28642 70.4363 3.14106 70.4363C3.14106 47.8736 3.14106 25.3804 3.14106 2.85937ZM82.8048 9.2225C82.8048 7.84706 82.7768 6.49941 82.8188 5.15176C82.8328 4.63771 82.7207 4.4571 82.1463 4.4571C56.5491 4.47099 30.9519 4.47099 5.36873 4.47099C5.17259 4.47099 4.99045 4.48489 4.78029 4.49878C4.78029 6.1104 4.78029 7.66645 4.78029 9.2225C30.7978 9.2225 56.7593 9.2225 82.8048 9.2225ZM4.73826 11.7928C4.73826 12.8903 4.73826 14.0018 4.73826 15.0994C4.73826 16.0441 4.64019 15.933 5.56488 15.933C31.036 15.933 56.4931 15.933 81.9642 15.933C82.0903 15.933 82.2164 15.9191 82.3425 15.933C82.6927 15.9746 82.8048 15.8218 82.8048 15.4745C82.7908 14.1546 82.8048 12.8486 82.7908 11.5288C82.7908 11.4176 82.7488 11.2926 82.7347 11.1814C56.7312 11.1814 30.7698 11.1814 4.73826 11.1814C4.73826 11.4037 4.73826 11.5982 4.73826 11.7928ZM82.7488 22.5601C82.7488 20.9623 82.7488 19.4202 82.7488 17.8502C56.7312 17.8502 30.7698 17.8502 4.76628 17.8502C4.76628 19.4341 4.76628 20.9762 4.76628 22.5601C30.7978 22.5601 56.7733 22.5601 82.7488 22.5601Z" fill="#F5F5F5"/>
</g>
<defs>
<clipPath id="clip0_70_13">
<rect width="86.0245" height="69.9666" fill="white" transform="translate(0.759277 0.469727)"/>
</clipPath>
</defs>
</svg>
