<svg width="64" height="64" viewBox="0 0 64 64" fill="none" xmlns="http://www.w3.org/2000/svg">
<path d="M7.40103 0.208496C7.78287 0.313655 8.17041 0.407446 8.54656 0.523974C10.7065 1.2004 12.9349 3.36896 12.9121 6.83638C12.8751 12.8163 12.9007 18.799 12.9036 24.7788C12.9036 35.3289 12.9036 45.8761 12.9036 56.4261C12.9036 56.699 12.9036 56.9747 12.8722 57.2475C12.8124 57.7619 12.4163 58.1229 11.9119 58.1542C11.3961 58.1854 10.9544 57.8955 10.8376 57.3868C10.7379 56.9633 10.7322 56.5171 10.6324 56.0908C10.1252 53.9336 7.9168 52.5296 5.75967 52.9758C3.47431 53.4476 2.00108 55.5905 2.41997 57.8387C2.80751 59.922 4.50301 61.3061 6.70288 61.3089C12.3821 61.3146 18.0641 61.3118 23.7433 61.3118C35.1986 61.3118 46.6568 61.3118 58.1121 61.3118C59.6708 61.3118 60.8078 60.5814 61.2837 59.2285C61.4119 58.8619 61.4746 58.4526 61.4746 58.0604C61.4831 42.6844 61.4831 27.3055 61.4803 11.9295C61.4803 9.99116 60.0783 8.6383 58.0779 8.63546C49.2613 8.63262 40.4447 8.63546 31.631 8.63546C26.5274 8.63546 21.4266 8.63546 16.323 8.63546C15.6278 8.63546 15.2431 8.42514 15.0778 7.96755C14.8042 7.21154 15.3228 6.52374 16.1948 6.5209C17.8875 6.51237 19.5773 6.51806 21.2699 6.51806C33.5373 6.51806 45.8048 6.51806 58.075 6.51806C60.5257 6.51806 62.4833 7.82545 63.2926 10.0111C63.3724 10.2271 63.4465 10.4459 63.5234 10.6648C63.5234 26.882 63.5234 43.0965 63.5234 59.3138C63.4778 59.4388 63.4237 59.5639 63.3838 59.6918C62.9108 61.272 61.902 62.3804 60.3889 63.0256C59.9899 63.1961 59.5625 63.2956 59.1465 63.4292C41.3195 63.4292 23.4926 63.4292 5.66849 63.4292C5.56875 63.3922 5.47186 63.3439 5.36643 63.324C3.5427 62.9432 2.10937 61.9854 1.15761 60.3881C0.792861 59.777 0.581993 59.0722 0.302734 58.41C0.302734 40.6806 0.302734 22.9542 0.302734 5.23057C0.348328 5.11688 0.408169 5.00604 0.439514 4.88951C0.946738 3.06201 2.05237 1.71483 3.74787 0.879242C4.35198 0.580817 5.02448 0.427341 5.66849 0.208496C6.2441 0.208496 6.82256 0.208496 7.40103 0.208496ZM10.7464 52.3022C10.755 52.1118 10.7664 51.9697 10.7664 51.8247C10.7664 39.5353 10.7664 27.2458 10.7664 14.9564C10.7664 12.1597 10.7806 9.36021 10.7607 6.56353C10.7436 4.13918 8.86001 2.29179 6.48631 2.32589C4.13826 2.36 2.34303 4.24719 2.34303 6.7028C2.34018 21.7491 2.34018 36.7954 2.34303 51.8418C2.34303 51.9839 2.36013 52.1231 2.36868 52.3022C5.17836 50.2644 7.9396 50.2615 10.7464 52.3022ZM37.9485 36.0167C31.8418 36.0167 25.7352 36.0138 19.6286 36.0252C19.2952 36.0252 19.2496 35.8888 19.2496 35.6074C19.2553 28.8715 19.2553 22.1357 19.2467 15.3998C19.2467 15.053 19.3635 14.9592 19.6998 14.9621C25.738 14.9706 31.7763 14.9706 37.8145 14.9592C38.1793 14.9592 38.2477 15.0957 38.242 15.4168C38.2277 16.5821 38.2363 17.7474 38.2363 18.9155C38.2363 20.041 38.2306 21.1665 38.242 22.2891C38.2477 22.8661 38.5953 23.2668 39.1254 23.3777C39.5585 23.4686 40.0629 23.2299 40.2452 22.795C40.3364 22.5762 40.3535 22.3175 40.3564 22.076C40.3649 19.8676 40.3678 17.6593 40.3535 15.4509C40.3507 15.0701 40.4647 14.9592 40.8437 14.9592C45.4514 14.9706 50.0592 14.9706 54.6669 14.9621C55.0288 14.9621 55.1685 15.0445 55.1685 15.4424C55.1571 22.1499 55.1571 28.8573 55.1685 35.5676C55.1685 35.9343 55.0602 36.0309 54.7011 36.0252C53.1481 36.0082 51.5922 36.0195 50.0392 36.0167C49.6289 36.0138 49.2727 36.1218 49.0248 36.4601C48.7769 36.7983 48.7484 37.1763 48.9279 37.5514C49.1274 37.9636 49.4807 38.1455 49.9338 38.1455C51.4868 38.1455 53.0427 38.1455 54.5957 38.1483C55.1599 38.1483 55.1599 38.1483 55.1599 38.7082C55.1599 43.9633 55.1599 49.2156 55.1599 54.4707C55.1599 55.0051 55.1599 55.0051 54.6014 55.0051C51.1905 55.0051 47.7795 55.0051 44.3686 55.0051C44.0523 55.0051 43.736 54.9994 43.4197 55.0193C42.9751 55.0505 42.6845 55.3007 42.542 55.7156C42.2855 56.4631 42.8013 57.1139 43.6647 57.1196C45.534 57.1282 47.4062 57.1225 49.2755 57.1225C51.5324 57.1225 53.7864 57.1253 56.0433 57.1196C56.8497 57.1168 57.2658 56.7018 57.28 55.906C57.2828 55.7838 57.28 55.6588 57.28 55.5365C57.28 43.6166 57.28 31.6938 57.2829 19.7738C57.2829 17.881 57.2857 15.9881 57.28 14.0952C57.2771 13.2682 56.8697 12.8617 56.0404 12.839C55.9179 12.8361 55.7925 12.839 55.67 12.839C43.7046 12.839 31.7393 12.839 19.7739 12.839C19.2781 12.839 18.7822 12.8276 18.2893 12.8447C17.5484 12.8703 17.1523 13.271 17.1238 14.0043C17.1124 14.1606 17.1152 14.3254 17.1152 14.4903C17.1152 23.8864 17.1124 33.2825 17.1124 42.6787C17.1124 47.0556 17.1124 51.4296 17.1152 55.8065C17.1152 56.6961 17.4999 57.1139 18.332 57.1139C25.2764 57.1168 32.2237 57.1168 39.1681 57.1139C39.9346 57.1139 40.3022 56.7189 40.3621 55.9515C40.4191 55.2552 40.4504 54.5446 40.6271 53.8739C41.556 50.3638 43.7645 48.0418 47.2438 46.9504C47.7282 46.7969 48.2383 46.7259 48.7997 46.6037C48.7997 46.8737 48.7997 47.0357 48.7997 47.1977C48.7997 48.6529 48.794 50.1052 48.8054 51.5604C48.8082 51.802 48.831 52.0606 48.9165 52.2823C49.0875 52.72 49.5833 52.9616 50.0278 52.8763C50.592 52.7683 50.9283 52.3647 50.9311 51.7195C50.9425 49.6903 50.9454 47.6581 50.9311 45.6288C50.9254 44.8415 50.4524 44.4266 49.6631 44.4465C47.3036 44.5062 45.138 45.1769 43.2173 46.544C40.4191 48.5335 38.7777 51.2392 38.3389 54.6469C38.2961 54.9795 38.1223 54.9994 37.8658 54.9994C31.8133 54.9965 25.7637 54.9937 19.7112 55.0022C19.3521 55.0022 19.2382 54.8999 19.241 54.5361C19.2524 49.227 19.2524 43.9179 19.241 38.6087C19.241 38.2222 19.3664 38.1284 19.7368 38.1312C21.8968 38.1483 24.0568 38.1398 26.2139 38.1398C30.5054 38.1398 34.7968 38.1426 39.0883 38.1398C39.9688 38.1398 40.3478 37.7646 40.3507 36.8921C40.3564 35.562 40.3592 34.2318 40.345 32.8989C40.3393 32.2452 39.909 31.8132 39.3049 31.8075C38.715 31.8046 38.2505 32.2508 38.2363 32.8818C38.2163 33.76 38.2306 34.6382 38.2306 35.5165C38.2306 35.6643 38.2306 35.8121 38.2306 35.9883C38.0853 36.0053 38.0169 36.0167 37.9485 36.0167Z" fill="white"/>
</svg>
