<svg width="99" height="100" viewBox="0 0 99 100" fill="none" xmlns="http://www.w3.org/2000/svg">
<g clip-path="url(#clip0_70_45)">
<path d="M98.6661 49.8833C98.5733 77.2863 76.4726 99.3046 49.1289 99.2118C21.9399 99.1344 -0.0680889 76.9149 0.0247064 49.6357C0.117502 22.4803 22.4038 0.446558 49.6547 0.570343C76.6736 0.694129 98.7589 22.9136 98.6661 49.8833ZM49.3145 94.6781C73.8743 94.6936 94.0573 74.6404 94.0728 50.1773C94.1037 25.281 74.1682 5.16587 49.4228 5.11945C24.8475 5.07303 4.64901 25.1572 4.61808 49.6667C4.58714 74.5321 24.5845 94.6627 49.3145 94.6781ZM8.93306 49.9143C8.88666 27.7257 26.9817 9.49836 49.1289 9.45194C71.5544 9.39005 89.7269 27.4472 89.7578 49.8369C89.7887 72.1183 71.7091 90.3147 49.5155 90.3456C27.09 90.3766 8.99492 72.3503 8.93306 49.9143ZM49.3609 87.6224C70.2398 87.5605 87.0822 70.6328 87.0358 49.7595C86.9894 29.01 70.0079 12.0978 49.2836 12.1752C28.3273 12.2526 11.6087 29.1802 11.6551 50.2547C11.7015 70.7566 28.7913 87.6843 49.3609 87.6224ZM67.8117 34.3947C67.688 34.7815 67.6106 35.1993 67.4405 35.5706C64.1153 42.7657 60.8056 49.9607 57.4341 57.1248C57.1402 57.7437 56.5061 58.3471 55.8875 58.6411C48.7577 62.0143 41.597 65.3255 34.4363 68.6368C33.3073 69.1629 32.3329 69.0236 31.606 68.2964C30.8637 67.5537 30.74 66.5943 31.2503 65.4648C34.5755 58.3007 37.8697 51.1366 41.2413 44.0035C41.5506 43.3536 42.1847 42.7192 42.8343 42.4098C49.9641 39.0366 57.1248 35.7254 64.2855 32.4141C66.0795 31.5786 67.7653 32.5534 67.8117 34.3947ZM47.4431 45.2723C49.8558 47.6861 52.1911 50.0226 54.5884 52.4209C56.6453 48.0111 58.6714 43.6631 60.6819 39.3151C60.6201 39.2687 60.5737 39.2223 60.5118 39.1759C56.1968 41.1874 51.8664 43.2144 47.4431 45.2723ZM38.0244 61.7048C38.0708 61.7512 38.1327 61.7977 38.1791 61.8441C42.525 59.8171 46.8864 57.8056 51.0467 55.856C48.6959 53.4576 46.3914 51.0902 44.0406 48.7074C42.0455 53.0244 40.035 57.3723 38.0244 61.7048ZM48.9897 85.7501C49.9486 85.6727 50.9384 85.7192 51.8354 85.4871C53.4903 85.0384 54.5729 83.1661 54.3409 81.464C54.0625 79.4835 52.6397 78.1373 50.6446 78.06C49.5619 78.0135 48.4793 78.0754 47.3967 78.0445C46.6853 78.029 46.3914 77.5648 46.4224 76.8995C46.4533 76.2651 46.7781 75.9092 47.4431 75.9092C48.402 75.9092 49.3609 75.9401 50.3198 75.8937C51.1395 75.8628 51.5261 76.2186 51.6498 77.0078C51.8045 77.9516 52.3458 78.3849 53.15 78.292C53.9079 78.1992 54.3873 77.5493 54.3254 76.6519C54.2017 74.7023 52.7015 73.2323 50.7374 73.1859C49.562 73.155 48.402 73.155 47.2266 73.2014C46.7317 73.2169 46.2058 73.3252 45.7573 73.5263C44.1798 74.2381 43.3756 75.9865 43.7468 77.8124C44.087 79.499 45.5408 80.7368 47.3349 80.7987C48.3865 80.8296 49.4382 80.8142 50.4899 80.7987C51.2632 80.7832 51.6034 81.2319 51.588 81.9128C51.588 82.5626 51.2168 82.9649 50.5054 82.9649C49.6083 82.9649 48.6959 82.934 47.7988 82.9804C46.9327 83.0268 46.4533 82.7328 46.345 81.8045C46.2368 80.8915 45.5872 80.4273 44.7985 80.5511C44.0252 80.6749 43.5766 81.3093 43.654 82.2068C43.8241 84.2492 45.3398 85.6418 47.4277 85.6727C47.938 85.6727 48.4484 85.6727 48.9588 85.6727C48.9897 85.7037 48.9897 85.7192 48.9897 85.7501ZM82.0094 51.5854C83.6333 51.5854 84.3138 51.1831 84.2829 50.2083C84.2674 49.2489 83.6333 48.8776 81.963 48.8776C80.4473 48.8776 78.9162 48.8776 77.3696 48.8776C77.3696 48.3979 77.3696 48.0265 77.3696 47.5933C79.4266 47.5933 81.4062 47.6088 83.3858 47.5933C84.3447 47.5778 84.917 47.0363 84.9015 46.1852C84.886 45.3806 84.3447 44.901 83.3858 44.8855C80.9577 44.87 78.5141 44.87 76.0859 44.8855C75.0961 44.8855 74.6012 45.3961 74.6012 46.4019C74.5858 48.9549 74.5858 51.508 74.6012 54.0611C74.6012 55.0514 75.1116 55.5465 76.1014 55.562C78.5296 55.5774 80.9732 55.5774 83.4013 55.562C84.3447 55.562 84.886 55.0514 84.886 54.2467C84.9015 53.4112 84.3138 52.8851 83.3549 52.8696C81.6691 52.8542 79.9988 52.8696 78.313 52.8696C77.9883 52.8696 77.6789 52.8387 77.3387 52.8232C77.3387 52.39 77.3387 52.065 77.3387 51.6008C78.9471 51.5854 80.4783 51.5854 82.0094 51.5854ZM20.4861 53.7207C20.7181 54.4788 20.9965 55.1751 21.9399 55.1906C22.8833 55.2216 23.1926 54.5407 23.4401 53.7826C24.136 51.6473 24.8629 49.512 25.5589 47.3767C25.8991 46.3554 25.6517 45.6282 24.8939 45.3342C24.0742 45.0247 23.3937 45.427 23.007 46.4792C22.6822 47.3921 22.3729 48.3051 21.9708 49.481C21.5842 48.3205 21.2748 47.4386 20.981 46.5256C20.749 45.8293 20.3933 45.2568 19.5581 45.2568C18.723 45.2568 18.3672 45.7984 18.1353 46.5256C17.8569 47.4386 17.5166 48.336 17.13 49.481C16.7279 48.3051 16.434 47.3612 16.0938 46.4328C15.738 45.4425 15.073 45.0402 14.2688 45.3033C13.511 45.5663 13.2016 46.2935 13.4955 47.2374C14.2379 49.512 15.0112 51.7865 15.7535 54.0611C15.97 54.7264 16.3721 55.1751 17.099 55.1751C17.8723 55.1906 18.2745 54.7109 18.5064 54.0147C18.8158 53.0708 19.1405 52.1424 19.5427 50.92C19.9293 52.0341 20.2386 52.8696 20.4861 53.7207ZM47.1183 19.5869C47.3658 19.9273 47.5668 20.2986 47.8452 20.5926C49.0825 21.8614 50.3043 23.1457 51.6189 24.3217C51.9592 24.6311 52.7015 24.8013 53.1191 24.6621C53.5058 24.5383 53.9543 23.8884 53.9697 23.4706C54.0471 21.0413 54.0316 18.6121 53.9852 16.1828C53.9697 15.3782 53.2892 14.8057 52.5778 14.8521C51.8664 14.8985 51.3405 15.4555 51.3096 16.2292C51.2941 16.5541 51.3096 16.8945 51.3096 17.2195C51.3096 18.1324 51.3096 19.0298 51.3096 19.9427C51.2323 19.9737 51.1395 20.0046 51.0621 20.0356C49.5774 18.5192 48.0927 17.0028 46.5925 15.5019C46.1285 15.0223 45.6181 14.6664 44.9222 14.9604C44.2107 15.2544 44.0097 15.8424 44.0252 16.5541C44.0406 18.7513 44.0252 20.933 44.0406 23.1302C44.0406 24.2133 44.5974 24.8787 45.448 24.8477C46.2677 24.8168 46.7781 24.1824 46.7781 23.1302C46.7781 22.0316 46.7781 20.9176 46.7781 19.819C46.8709 19.7416 46.9946 19.6642 47.1183 19.5869Z" fill="#F5F5F5"/>
</g>
<defs>
<clipPath id="clip0_70_45">
<rect width="98.6414" height="98.6414" fill="white" transform="translate(0.0244141 0.570312)"/>
</clipPath>
</defs>
</svg>
