<svg width="133" height="121" viewBox="0 0 133 121" fill="none" xmlns="http://www.w3.org/2000/svg">
<g clip-path="url(#clip0_48_182)">
<path d="M90.9922 80.758C90.8251 80.7747 90.6748 80.7914 90.5077 80.808C90.3072 81.3576 89.9564 81.8906 89.923 82.4402C89.7893 84.7386 89.8395 87.0537 89.639 89.3521C89.4719 91.3507 88.4362 92.35 86.4315 92.6664C85.2788 92.8496 84.0926 92.9329 82.9232 92.9329C67.3199 92.9329 51.7166 92.9329 36.1301 92.8996C33.7411 92.8996 31.8032 93.7157 30.1661 95.4312C28.0945 97.6296 25.9395 99.7448 23.8011 101.877C23.1329 102.543 22.4312 103.176 21.5625 103.975C21.5625 100.161 21.5625 96.6303 21.5625 92.9329C20.2929 92.9329 19.1569 92.9329 18.0209 92.9329C17.1522 92.9329 16.3002 92.9329 15.4315 92.9163C11.7729 92.8163 10.2693 91.2507 10.2526 87.5866C10.2359 78.1765 10.2192 68.7831 10.2192 59.3729C10.2192 55.1426 10.2192 50.9122 10.2526 46.6818C10.2693 43.2508 11.7562 41.7519 15.2143 41.6686C16.8181 41.6353 18.4385 41.652 20.0423 41.6353C21.0112 41.6353 21.9802 41.6353 22.9825 41.6353C22.9825 38.3209 22.9825 35.1731 22.9825 31.7921C21.2952 31.7921 19.6915 31.7588 18.0877 31.7921C16.1331 31.8255 14.1618 31.8255 12.2072 32.0087C5.65852 32.6416 0.613348 38.221 0.56323 44.7664C0.529818 48.0142 0.446289 51.2619 0.446289 54.5097C0.462995 66.5846 0.412877 78.6429 0.613348 90.7011C0.680171 95.0814 2.70158 98.5457 7.04511 100.361C10.6035 101.843 12.0903 104.575 11.8397 108.405C11.6893 110.671 11.6225 112.936 11.6726 115.201C11.7228 118.115 13.7943 120.247 16.651 120.48C18.7893 120.664 20.2762 119.448 21.6628 118.065C25.9896 113.735 30.3164 109.421 34.6432 105.108C36.1635 103.609 38.0345 102.826 40.1562 102.809C50.6809 102.759 61.2223 102.759 71.747 102.743C76.3912 102.743 81.0188 102.826 85.663 102.743C89.3383 102.676 92.8131 101.76 95.202 98.7289C96.5552 97.0301 97.591 95.0648 98.6268 93.1494C99.6792 91.2008 99.4286 89.2188 97.9084 87.6033C95.6531 85.2549 93.2976 83.0398 90.9922 80.758Z" fill="white"/>
<path d="M129.282 6.52654C126.258 2.34612 121.898 0.830509 116.986 0.797199C105.393 0.713924 93.7987 0.763889 82.2048 0.763889C70.6611 0.763889 59.1006 0.763889 47.5568 0.763889C38.5189 0.763889 32.6385 6.62647 32.6218 15.6036C32.6051 27.4786 32.5884 39.337 32.6051 51.2121C32.6051 54.0268 32.5717 56.8582 32.9058 59.6562C33.5072 64.6694 35.8794 68.5833 40.7241 70.6652C43.2467 71.7478 45.9364 72.0809 48.6594 72.0809C62.9596 72.0642 77.2599 72.0309 91.5601 71.9976C94.0159 71.9976 96.1709 72.6305 97.9418 74.4459C102.185 78.7929 106.495 83.0899 110.772 87.4035C111.106 87.7366 111.457 88.0531 111.841 88.3362C113.629 89.6853 115.533 89.9351 117.588 89.0024C119.593 88.1031 120.562 86.4875 120.578 84.3557C120.628 80.7082 120.645 77.0774 120.562 73.4299C120.528 72.2141 120.896 71.6978 122.032 71.2648C128.614 68.7499 131.972 63.8699 131.988 56.8582C132.022 43.3842 132.005 29.9103 131.988 16.4363C131.988 12.8888 131.404 9.47449 129.282 6.52654ZM64.9309 27.5286H53.6044V33.108H63.5778V38.6375H53.6044V47.3148H47.2227V21.9991H64.9309V27.5286ZM85.9135 47.3148L84.126 42.4016H74.5702L72.7994 47.3148H66.2841L76.2575 21.9824H82.5556L92.5625 47.3148H85.9135ZM118.323 52.6111C117.237 53.1607 116.051 53.4272 114.765 53.4272C113.512 53.4272 112.392 53.244 111.373 52.8776C110.354 52.5112 109.352 51.9116 108.316 51.0955C107.297 50.2627 106.144 49.0969 104.875 47.5979C102.92 47.2315 101.166 46.4487 99.6458 45.2496C98.1255 44.0504 96.9227 42.5181 96.0874 40.6861C95.2354 38.854 94.8178 36.8388 94.8178 34.6403C94.8178 32.1254 95.3691 29.8769 96.4549 27.8783C97.5408 25.8797 99.0276 24.3142 100.949 23.1816C102.853 22.0491 104.992 21.4828 107.381 21.4828C109.77 21.4828 111.908 22.0491 113.812 23.1816C115.717 24.3142 117.204 25.8797 118.306 27.8783C119.392 29.8769 119.943 32.142 119.943 34.6403C119.943 37.4883 119.258 40.0032 117.855 42.185C116.469 44.3669 114.598 45.9324 112.259 46.8651C112.693 47.3981 113.111 47.7645 113.528 47.981C113.946 48.1975 114.414 48.3141 114.898 48.3141C116.168 48.3141 117.304 47.7145 118.323 46.5487L121.096 50.2461C120.328 51.2787 119.409 52.0782 118.323 52.6111Z" fill="white"/>
<path d="M113.461 34.6571C113.461 33.2414 113.194 31.9756 112.659 30.8764C112.125 29.7771 111.39 28.9277 110.471 28.3281C109.535 27.7286 108.5 27.4121 107.364 27.4121C106.228 27.4121 105.192 27.7119 104.273 28.3115C103.354 28.9111 102.619 29.7605 102.085 30.8597C101.55 31.9589 101.283 33.2247 101.283 34.6404C101.283 36.0561 101.55 37.3219 102.085 38.4211C102.619 39.5203 103.354 40.3698 104.273 40.9693C105.192 41.5689 106.228 41.8687 107.364 41.8687C108.5 41.8687 109.535 41.5689 110.454 40.9693C111.373 40.3698 112.108 39.5203 112.643 38.4211C113.194 37.3385 113.461 36.0727 113.461 34.6571Z" fill="white"/>
<path d="M76.458 37.1218H82.255L79.3481 29.0107L76.458 37.1218Z" fill="white"/>
</g>
<defs>
<clipPath id="clip0_48_182">
<rect width="131.559" height="119.733" fill="white" transform="translate(0.446289 0.763672)"/>
</clipPath>
</defs>
</svg>
