<svg width="88" height="92" viewBox="0 0 88 92" fill="none" xmlns="http://www.w3.org/2000/svg">
<g clip-path="url(#clip0_70_9)">
<path d="M35.9799 5.50463C38.6964 5.50463 40.9576 5.77315 43.1278 6.57871C47.453 8.18984 50.0481 11.2927 51.1863 15.6487C51.4747 16.7377 51.6113 17.8566 51.6113 18.9754C51.6264 21.1534 51.672 23.3463 51.7023 25.5243C51.7023 25.7332 51.7782 25.8078 51.9755 25.8227C52.3701 25.8525 52.6432 26.0763 52.8405 26.4194C53.1289 26.9415 53.1744 27.5084 53.2351 28.0902C53.5234 30.9992 52.6888 33.6247 51.1712 36.0861C50.5641 37.0856 49.8508 37.9956 49.0313 38.831C48.9554 38.9056 48.8947 39.025 48.8644 39.1443C48.0145 42.0831 46.5424 44.6639 44.2357 46.7375C42.4297 48.3486 40.3506 49.4078 37.9376 49.8105C35.8888 50.1536 33.9463 49.7956 32.0796 48.9901C29.6059 47.9309 27.6937 46.2004 26.1913 44.0224C25.1593 42.5306 24.4157 40.9046 23.9301 39.1592C23.8997 39.025 23.8086 38.8907 23.7176 38.7863C21.7295 36.7127 20.3637 34.3109 19.7566 31.5213C19.4228 30.0295 19.4379 28.5228 19.7415 27.031C19.787 26.8073 19.8932 26.5984 19.9994 26.3896C20.1664 26.0614 20.4547 25.8674 20.8341 25.8376C21.0466 25.8227 21.1073 25.7481 21.1073 25.5393C21.1225 24.0624 21.1377 22.5855 21.168 21.1236C21.1832 20.0495 21.1528 18.9605 21.2742 17.8864C21.684 13.9481 23.2623 10.6214 26.5707 8.21967C28.2552 6.99641 30.1674 6.29527 32.2162 5.89249C33.5669 5.62397 34.9631 5.50463 35.9799 5.50463ZM23.9452 48.5873C22.2 49.3481 20.4699 50.1387 18.7095 50.8697C16.342 51.8543 13.929 52.7344 11.6374 53.8831C9.9984 54.7036 8.42009 55.6434 7.02389 56.8368C5.74909 57.9258 4.77782 59.2386 3.86726 60.6259C1.3025 64.4897 -0.0178216 68.6816 0.179468 73.3359C0.224996 74.4398 0.740983 75.2156 1.6819 75.7824C2.57729 76.3195 3.57891 76.6328 4.59571 76.7969C8.29868 77.4085 12.0016 78.0052 15.7198 78.5273C18.239 78.8854 20.7734 79.1539 23.2927 79.3926C25.5084 79.6014 27.7393 79.7506 29.9701 79.8699C33.4606 80.0639 36.936 80.1235 40.4265 79.9594C43.2796 79.8401 46.1175 79.6163 48.9554 79.4373C49.3804 79.4075 49.8205 79.3478 50.2606 79.303C48.6519 74.1564 48.9858 69.1739 51.6113 64.4449C54.2215 59.716 58.2736 56.6876 63.5548 55.2108C63.4638 55.1511 63.4031 55.1064 63.3272 55.0616C61.1115 53.7041 58.6985 52.7195 56.3007 51.7349C53.9332 50.7504 51.5809 49.7509 49.2134 48.7514C49.0617 48.6917 48.9099 48.6022 48.7278 48.5127C48.6974 48.6171 48.6823 48.6917 48.6519 48.7812C48.1208 51.0935 47.6351 53.4206 47.0584 55.718C46.2693 58.8806 45.2221 61.9686 43.8411 64.9372C42.4145 68.0401 40.6389 70.9491 38.575 73.679C38.0894 74.3205 37.5734 74.962 37.027 75.5587C36.5717 76.051 36.2075 76.0211 35.7219 75.5587C35.4184 75.2603 35.1452 74.9172 34.872 74.5741C31.6395 70.4717 29.1051 65.9964 27.3447 61.0884C26.1306 57.717 25.2807 54.2411 24.5219 50.7504C24.3702 50.0194 24.2032 49.2735 24.0515 48.5276C24.0059 48.5724 23.9756 48.5724 23.9452 48.5873ZM69.3825 56.434C59.4573 56.4191 51.4291 64.2957 51.3988 74.0818C51.3836 83.8082 59.4269 91.7445 69.3521 91.7594C79.2318 91.7743 87.3206 83.8381 87.3206 74.1266C87.3358 64.3703 79.3076 56.4639 69.3825 56.434ZM64.0708 65.4742C63.6914 64.2957 63.3272 63.1172 62.9478 61.9387C62.8871 61.7597 62.9478 61.6851 63.0996 61.5956C64.3895 60.9243 65.7706 60.5066 67.1971 60.2828C68.3505 60.1038 69.5039 60.0292 70.6573 60.1337C72.0079 60.253 73.3131 60.5364 74.4816 61.2525C76.4545 62.4459 77.3499 64.2062 77.3196 66.4737C77.2892 68.3086 76.5152 69.8601 75.377 71.2474C74.8155 71.9336 74.2085 72.5751 73.6318 73.2315C72.8881 74.0818 72.2963 75.0216 72.0686 76.1256C71.9321 76.8267 71.9169 77.5577 71.8713 78.2737C71.8562 78.4975 71.8106 78.5721 71.583 78.5721C69.9743 78.5572 68.3808 78.5572 66.7722 78.5721C66.5597 78.5721 66.499 78.5124 66.4838 78.3036C66.408 77.1698 66.408 76.051 66.757 74.9471C67.1971 73.5149 68.0014 72.3066 68.9575 71.1579C69.5342 70.4568 70.0957 69.7258 70.5965 68.965C70.9911 68.3981 71.2036 67.7417 71.1277 67.0406C71.0063 65.9069 70.3689 65.2505 69.1852 64.9969C67.7131 64.6985 66.3321 65.0416 64.9966 65.6533C64.7538 65.7577 64.5261 65.9069 64.2378 66.056C64.2074 65.8472 64.1315 65.6682 64.0708 65.4742ZM65.467 83.9723C65.467 81.854 66.9695 80.3622 69.0789 80.3622C71.1884 80.3622 72.7212 81.8689 72.6909 84.0022C72.6757 86.21 71.0822 87.5974 69.0486 87.5824C66.9543 87.5824 65.467 86.0757 65.467 83.9723ZM16.7062 19.3334C16.7062 18.0058 16.8883 16.7079 17.2526 15.425C18.2997 11.7999 20.4547 8.92081 23.49 6.68314C28.149 3.26696 33.4151 2.08845 39.1365 2.715C41.2763 2.95368 43.3403 3.50564 45.3132 4.37088C49.35 6.16101 52.5218 8.87605 54.5099 12.8144C55.5115 14.7984 56.073 16.9168 56.0579 19.1544C56.0427 21.5413 56.0579 23.9132 56.0579 26.3001C56.0579 28.7317 56.0275 31.1484 56.073 33.58C56.1034 35.6088 55.9061 37.5928 55.5419 39.5918C55.4963 39.8454 55.3901 39.9499 55.1321 40.0245C53.2351 40.5466 52.0362 42.3665 52.3549 44.2909C52.6129 45.8722 53.5538 46.9463 55.1321 47.3789C56.6952 47.8265 58.0611 47.4088 59.1386 46.2303C60.7473 44.47 60.3375 41.7549 58.2887 40.4571C58.1066 40.3377 58.0156 40.2482 58.0763 40.0095C58.1825 39.6068 58.2432 39.204 58.2887 38.8012C58.4253 37.6227 58.5316 36.4293 58.6378 35.2507C58.653 35.1016 58.6985 35.0419 58.8503 35.0419C59.4269 34.9971 59.9733 34.8629 60.4741 34.6093C61.7489 33.9678 62.4773 32.9832 62.4773 31.5213C62.4622 28.0007 62.4773 24.4801 62.4773 20.9595C62.4773 20.3777 62.3559 19.8406 62.0372 19.3484C61.2936 18.1848 60.1554 17.6626 58.8047 17.5433C58.5923 17.5284 58.5164 17.4687 58.5012 17.2599C58.4557 16.8571 58.395 16.4394 58.3039 16.0366C57.5451 12.3221 55.7392 9.15949 52.9923 6.51904C48.9858 2.64041 44.0991 0.626504 38.5446 0.119299C36.6021 -0.0597152 34.6444 0.0148739 32.7018 0.298312C28.9685 0.850271 25.5387 2.14812 22.458 4.29629C19.8173 6.13118 17.7079 8.42852 16.1902 11.2629C15.1886 13.1426 14.5512 15.1565 14.2781 17.2897C14.2629 17.4687 14.187 17.5135 14.0201 17.5284C13.7772 17.5433 13.5344 17.5731 13.2916 17.6328C11.774 17.961 10.226 19.0948 10.2716 21.3026C10.3323 24.674 10.3019 28.0604 10.2867 31.4318C10.2867 32.9982 11.0456 34.0275 12.4418 34.6839C13.3675 35.1165 14.3388 35.1463 15.31 35.027C16.1144 34.9375 16.7214 34.4452 16.7062 33.4457C16.6759 31.029 16.6911 28.6123 16.6911 26.1956C16.7062 23.8983 16.7062 21.6159 16.7062 19.3334ZM36.5414 72.9331C37.8314 70.8447 38.9999 68.6965 40.0774 66.4886C40.123 66.3991 40.123 66.25 40.1078 66.1455C39.7587 64.609 39.3945 63.0725 39.0303 61.5508C38.924 61.1182 38.7571 60.984 38.3018 60.984C37.027 60.984 35.7522 60.984 34.4774 60.984C34.0525 60.984 33.8704 61.1182 33.7793 61.521C33.4151 63.0576 33.0509 64.5941 32.7018 66.1157C32.6715 66.25 32.7018 66.429 32.7625 66.5483C33.3999 67.8014 34.0373 69.0545 34.7051 70.2927C35.2211 71.2474 35.7826 72.1873 36.3593 73.1868C36.4503 73.0674 36.4959 73.0077 36.5414 72.9331ZM33.3696 53.9428C32.9447 53.9428 32.6715 54.271 32.7474 54.6737C33.0509 56.1804 33.3392 57.6871 33.6579 59.1789C33.7338 59.5817 33.9311 59.7309 34.356 59.7309C35.6915 59.7309 37.0422 59.7309 38.3777 59.7309C38.8785 59.7309 39.0606 59.5817 39.1517 59.0894C39.44 57.6424 39.7284 56.1954 40.0167 54.7632C40.123 54.256 39.865 53.9428 39.3338 53.9428C38.3625 53.9428 37.3761 53.9428 36.4048 53.9428C35.4032 53.9428 34.3864 53.9428 33.3696 53.9428Z" fill="#F5F5F5"/>
</g>
<defs>
<clipPath id="clip0_70_9">
<rect width="87.1715" height="91.7595" fill="white" transform="translate(0.164551)"/>
</clipPath>
</defs>
</svg>
