<svg width="61" height="50" viewBox="0 0 61 50" fill="none" xmlns="http://www.w3.org/2000/svg">
<path d="M7.35133 21.7724C6.02829 22.736 4.87518 23.6137 3.68081 24.4326C2.80202 25.0358 1.71204 24.8176 1.08815 23.9864C0.541939 23.2582 0.660891 22.2039 1.37946 21.488C1.50812 21.3605 1.65135 21.2453 1.79943 21.1374C10.8956 14.4562 19.9942 7.77506 29.0928 1.0988C30.2896 0.221051 30.8528 0.223502 32.0472 1.0988C41.1239 7.75545 50.1958 14.4195 59.2702 21.0786C59.9353 21.5665 60.4742 22.1475 60.399 23.0425C60.2728 24.543 58.6997 25.2662 57.3985 24.3934C56.2138 23.5966 55.0874 22.7164 53.7547 21.7406C53.7547 22.2039 53.7547 22.5129 53.7547 22.8242C53.7547 30.9152 53.7547 39.0037 53.7547 47.0947C53.7547 48.757 53.1017 49.4116 51.446 49.4141C46.8336 49.4165 42.2212 49.4141 37.6088 49.4141C35.4725 49.4141 34.9579 48.8869 34.9579 46.6901C34.9554 41.48 34.9579 36.27 34.9579 31.0623C34.9579 30.7019 34.9579 30.3415 34.9579 29.9271C32.0011 29.9271 29.1365 29.9271 26.1773 29.9271C26.1773 30.3317 26.1773 30.6896 26.1773 31.0501C26.1773 36.3509 26.1797 41.6541 26.1773 46.9549C26.1773 48.8134 25.5704 49.4141 23.7181 49.4141C19.0159 49.4141 14.3112 49.4165 9.60898 49.4141C8.05775 49.4141 7.35375 48.6957 7.35133 47.1118C7.3489 39.0528 7.3489 30.9937 7.3489 22.9321C7.35133 22.606 7.35133 22.2799 7.35133 21.7724ZM11.1384 45.5795C14.9667 45.5795 18.6518 45.5795 22.4266 45.5795C22.4266 45.1602 22.4266 44.7998 22.4266 44.4394C22.4266 39.0797 22.4218 33.7176 22.4315 28.358C22.4339 26.7913 23.1695 26.068 24.7207 26.068C28.5733 26.0631 32.4235 26.0655 36.276 26.068C38.0336 26.068 38.6939 26.73 38.6964 28.4928C38.6988 33.8843 38.7109 39.2759 38.6818 44.6674C38.6769 45.4103 38.8517 45.6702 39.631 45.6604C42.7844 45.6162 45.9403 45.6432 49.0937 45.6408C49.3583 45.6408 49.6254 45.6089 49.9191 45.5917C49.9458 45.3269 49.9846 45.121 49.9871 44.9126C49.9895 36.4882 49.9968 28.0638 49.9652 19.6418C49.9628 19.2716 49.6812 18.7812 49.3777 18.5532C45.0348 15.3193 40.6651 12.1221 36.3027 8.91761C34.3947 7.51517 32.4866 6.11519 30.5882 4.72502C30.4037 4.85006 30.2726 4.92852 30.1512 5.01923C23.9973 9.53301 17.8506 14.059 11.6846 18.5606C11.2185 18.9014 11.1311 19.2716 11.1311 19.7938C11.1432 28.0956 11.1384 36.3974 11.1384 44.6993C11.1384 44.969 11.1384 45.2411 11.1384 45.5795Z" fill="white"/>
</svg>
