<svg width="249" height="133" viewBox="0 0 249 133" fill="none" xmlns="http://www.w3.org/2000/svg">
<g clip-path="url(#clip0_51_226)">
<path d="M11.6494 55.2129H29.5269L15.3647 126.116H30.9657L47.7692 42.1328H14.2856L11.6494 55.2129Z" fill="#DB3726"/>
<path d="M94.5056 44.9841C90.6413 43.0833 86.109 42.1328 80.9138 42.1328C75.0197 42.1328 69.7269 43.4326 65.0404 46.027C60.3488 48.6266 56.6746 52.1715 54.0128 56.672C51.3509 61.1724 50.02 66.238 50.02 71.879C50.02 76.4411 51.0786 80.4484 53.206 83.9008C55.3283 87.3532 58.3395 90.0299 62.2347 91.9308C66.1298 93.8316 70.6467 94.7821 75.7802 94.7821C81.6743 94.7821 86.9826 93.4823 91.6999 90.8878C96.4172 88.2934 100.096 84.7434 102.727 80.2429C105.358 75.7476 106.674 70.6768 106.674 65.041C106.674 60.4789 105.61 56.4768 103.488 53.0192C101.366 49.5617 98.3699 46.885 94.5056 44.9841ZM89.7575 74.4426C88.4882 76.9754 86.7154 78.9585 84.4338 80.3816C82.1522 81.8047 79.588 82.5188 76.736 82.5188C73.0619 82.5188 70.1945 81.5067 68.1339 79.4774C66.0733 77.4481 65.0455 74.6944 65.0455 71.2112C65.0455 67.918 65.6776 65.005 66.9468 62.4671C68.2161 59.9343 69.9889 57.9512 72.2705 56.5281C74.5521 55.105 77.1471 54.3909 80.0659 54.3909C83.7401 54.3909 86.592 55.403 88.6218 57.4323C90.6516 59.4617 91.6639 62.2154 91.6639 65.6986C91.6588 68.9969 91.0216 71.9098 89.7575 74.4426Z" fill="#DB3726"/>
<path d="M158.667 44.9841C154.803 43.0833 150.271 42.1328 145.075 42.1328C139.181 42.1328 133.888 43.4326 129.202 46.027C124.51 48.6266 120.836 52.1715 118.174 56.672C115.513 61.1724 114.182 66.238 114.182 71.879C114.182 76.4411 115.24 80.4484 117.368 83.9008C119.49 87.3532 122.501 90.0299 126.396 91.9308C130.291 93.8316 134.808 94.7821 139.942 94.7821C145.836 94.7821 151.139 93.4823 155.861 90.8878C160.579 88.2934 164.258 84.7434 166.889 80.2429C169.52 75.7476 170.836 70.6768 170.836 65.041C170.836 60.4789 169.772 56.4768 167.65 53.0192C165.527 49.5617 162.532 46.885 158.667 44.9841ZM153.914 74.4426C152.645 76.9754 150.872 78.9585 148.59 80.3816C146.309 81.8047 143.744 82.5188 140.893 82.5188C137.218 82.5188 134.351 81.5067 132.29 79.4774C130.23 77.4481 129.202 74.6944 129.202 71.2112C129.202 67.918 129.834 65.005 131.103 62.4671C132.373 59.9343 134.145 57.9512 136.427 56.5281C138.709 55.105 141.304 54.3909 144.222 54.3909C147.897 54.3909 150.749 55.403 152.778 57.4323C154.808 59.4617 155.82 62.2154 155.82 65.6986C155.815 68.9969 155.183 71.9098 153.914 74.4426Z" fill="#DB3726"/>
<path d="M231.806 53.0141C229.684 49.5617 226.688 46.885 222.823 44.9841C218.959 43.0833 214.427 42.1328 209.232 42.1328C203.338 42.1328 198.045 43.4326 193.358 46.027C188.667 48.6266 184.992 52.1715 182.331 56.672C179.669 61.1724 178.338 66.238 178.338 71.879C178.338 76.4411 179.396 80.4484 181.524 83.9008C183.646 87.3532 186.657 90.0299 190.553 91.9308C194.448 93.8316 198.965 94.7821 204.098 94.7821C209.992 94.7821 215.3 93.4823 220.018 90.8878C224.735 88.2934 228.414 84.7434 231.045 80.2429C233.676 75.7476 234.992 70.6768 234.992 65.041C234.992 60.4737 233.928 56.4665 231.806 53.0141ZM218.07 74.4426C216.801 76.9754 215.028 78.9585 212.747 80.3816C210.465 81.8047 207.901 82.5188 205.049 82.5188C201.375 82.5188 198.507 81.5067 196.447 79.4774C194.386 77.4481 193.358 74.6944 193.358 71.2112C193.358 67.918 193.99 65.005 195.26 62.4671C196.529 59.9343 198.302 57.9512 200.583 56.5281C202.865 55.105 205.465 54.3909 208.379 54.3909C212.053 54.3909 214.905 55.403 216.935 57.4323C218.964 59.4617 219.977 62.2154 219.977 65.6986C219.971 68.9969 219.339 71.9098 218.07 74.4426Z" fill="#DB3726"/>
<path d="M62.3938 105.864L58.3907 125.807H52.6046L55.5696 110.611H47.3015L44.3365 125.807H38.5503L42.5585 105.864H62.3938Z" fill="#142244"/>
<path d="M83.4728 106.645C84.7935 107.364 85.8469 108.391 86.6229 109.743C87.4039 111.089 87.7893 112.676 87.7893 114.505C87.7893 116.704 87.3012 118.687 86.3248 120.454C85.3485 122.222 84.0175 123.604 82.3372 124.605C80.6568 125.607 78.7915 126.106 76.736 126.106C73.6939 126.106 71.546 125.119 70.287 123.141L68.324 133H62.5378L67.9489 105.869H73.437L73.031 107.831C74.6857 106.326 76.7257 105.571 79.1512 105.571C80.7082 105.566 82.1471 105.925 83.4728 106.645ZM79.1152 120.49C80.0042 119.935 80.6979 119.16 81.1913 118.173C81.6846 117.187 81.9312 116.046 81.9312 114.762C81.9312 113.406 81.5304 112.327 80.7288 111.536C79.9271 110.744 78.8069 110.349 77.3732 110.349C76.2633 110.349 75.2612 110.626 74.3722 111.181C73.4832 111.736 72.7895 112.512 72.2962 113.498C71.8029 114.484 71.5562 115.625 71.5562 116.909C71.5562 118.271 71.9519 119.345 72.7433 120.136C73.5346 120.927 74.6446 121.322 76.0783 121.322C77.2088 121.322 78.2262 121.045 79.1152 120.49Z" fill="#142244"/>
<path d="M94.9269 124.991C93.4058 124.251 92.2342 123.208 91.4069 121.857C90.5796 120.511 90.1633 118.949 90.1633 117.166C90.1633 114.967 90.6823 112.989 91.7204 111.237C92.7584 109.486 94.1921 108.098 96.0214 107.086C97.8508 106.074 99.9165 105.566 102.214 105.566C104.238 105.566 106.006 105.936 107.517 106.675C109.022 107.415 110.194 108.463 111.021 109.809C111.849 111.155 112.265 112.717 112.265 114.5C112.265 116.699 111.751 118.677 110.728 120.429C109.701 122.186 108.267 123.568 106.427 124.58C104.588 125.592 102.517 126.1 100.215 126.1C98.2105 126.105 96.4479 125.73 94.9269 124.991ZM103.586 120.49C104.475 119.935 105.168 119.16 105.662 118.173C106.155 117.187 106.402 116.046 106.402 114.762C106.402 113.406 106.006 112.327 105.215 111.535C104.423 110.744 103.313 110.349 101.88 110.349C100.744 110.349 99.7264 110.626 98.8374 111.181C97.9484 111.736 97.2547 112.512 96.7614 113.498C96.2681 114.484 96.0214 115.625 96.0214 116.909C96.0214 118.271 96.4222 119.344 97.2239 120.136C98.0255 120.927 99.1457 121.322 100.579 121.322C101.695 121.322 102.697 121.045 103.586 120.49Z" fill="#142244"/>
<path d="M135.584 117.392H120.307C120.502 120.11 122.224 121.471 125.461 121.471C126.473 121.471 127.444 121.312 128.369 120.988C129.294 120.67 130.106 120.213 130.8 119.617L133.21 123.434C132.1 124.323 130.826 124.991 129.392 125.438C127.958 125.885 126.448 126.105 124.87 126.105C122.82 126.105 121.021 125.741 119.474 125.011C117.928 124.282 116.741 123.239 115.913 121.877C115.086 120.521 114.67 118.949 114.67 117.171C114.67 114.972 115.168 112.989 116.17 111.222C117.172 109.455 118.56 108.073 120.343 107.071C122.121 106.069 124.151 105.571 126.422 105.571C128.349 105.571 130.024 105.93 131.447 106.645C132.871 107.364 133.971 108.386 134.747 109.722C135.522 111.058 135.913 112.604 135.913 114.356C135.913 115.265 135.805 116.283 135.584 117.392ZM122.717 111.001C121.776 111.731 121.108 112.738 120.713 114.022H130.61C130.61 112.738 130.209 111.731 129.402 111.001C128.601 110.272 127.516 109.907 126.16 109.907C124.803 109.907 123.657 110.272 122.717 111.001Z" fill="#142244"/>
<path d="M153.045 115.799L158.533 125.807H151.858L148.261 118.245H144.998L143.477 125.807H137.696L141.699 105.864H147.48L145.928 113.611H148.929L155.938 105.864H162.238L153.045 115.799Z" fill="#142244"/>
<path d="M181.036 110.611H174.253L171.288 125.807H165.502L168.467 110.611H161.797L162.758 105.864H182.002L181.036 110.611Z" fill="#142244"/>
<path d="M185.393 124.991C183.872 124.251 182.701 123.208 181.873 121.857C181.046 120.511 180.63 118.949 180.63 117.166C180.63 114.967 181.149 112.989 182.187 111.237C183.225 109.486 184.659 108.098 186.488 107.086C188.317 106.074 190.383 105.566 192.68 105.566C194.705 105.566 196.472 105.936 197.983 106.675C199.489 107.415 200.66 108.463 201.488 109.809C202.315 111.155 202.731 112.717 202.731 114.5C202.731 116.699 202.217 118.677 201.195 120.429C200.167 122.186 198.733 123.568 196.894 124.58C195.054 125.592 192.983 126.1 190.681 126.1C188.677 126.105 186.914 125.73 185.393 124.991ZM194.052 120.49C194.941 119.935 195.635 119.16 196.128 118.173C196.621 117.187 196.868 116.046 196.868 114.762C196.868 113.406 196.472 112.327 195.681 111.535C194.89 110.744 193.775 110.349 192.346 110.349C191.21 110.349 190.198 110.626 189.304 111.181C188.415 111.736 187.721 112.512 187.228 113.498C186.735 114.484 186.488 115.625 186.488 116.909C186.488 118.271 186.889 119.344 187.69 120.136C188.492 120.927 189.612 121.322 191.046 121.322C192.161 121.322 193.163 121.045 194.052 120.49Z" fill="#142244"/>
<path d="M224.679 119.581C224.679 121.507 223.882 123.028 222.289 124.138C220.696 125.247 218.466 125.807 215.599 125.807H204.699L208.703 105.864H218.713C221.01 105.864 222.772 106.269 223.995 107.086C225.218 107.903 225.83 109.074 225.83 110.605C225.83 111.715 225.496 112.702 224.828 113.554C224.16 114.407 223.219 115.055 222.012 115.502C223.785 116.221 224.679 117.577 224.679 119.581ZM218.394 121.173C219.047 120.706 219.376 120.074 219.376 119.283C219.376 118.666 219.16 118.209 218.728 117.911C218.296 117.613 217.634 117.464 216.745 117.464H211.703L210.814 121.877H215.707C216.842 121.877 217.736 121.641 218.394 121.173ZM212.366 114.058H216.739C217.777 114.058 218.615 113.832 219.262 113.369C219.905 112.912 220.229 112.311 220.229 111.571C220.229 110.359 219.35 109.753 217.598 109.753H213.225L212.366 114.058Z" fill="#142244"/>
<path d="M216.446 17.2004L219.16 3.66305H211.632L209.854 12.5509L192.038 0L0 35.2536L190.357 8.39984L249 40.1343L216.446 17.2004Z" fill="#142244"/>
</g>
<defs>
<clipPath id="clip0_51_226">
<rect width="249" height="133" fill="white"/>
</clipPath>
</defs>
</svg>
