<svg width="320" height="223" viewBox="0 0 320 223" fill="none" xmlns="http://www.w3.org/2000/svg">
<path d="M16.568 184L20.488 164.4H33.34L32.836 166.836H22.028L22.84 166.136L19.34 184H16.568ZM40.909 184.224C38.9676 184.224 37.3063 183.879 35.925 183.188C34.5436 182.497 33.489 181.536 32.761 180.304C32.0516 179.053 31.697 177.607 31.697 175.964C31.697 174.34 31.977 172.819 32.537 171.4C33.097 169.963 33.8996 168.703 34.945 167.62C35.9903 166.537 37.241 165.697 38.697 165.1C40.153 164.484 41.7863 164.176 43.597 164.176C45.557 164.176 47.2276 164.521 48.609 165.212C49.9903 165.903 51.0356 166.873 51.745 168.124C52.473 169.356 52.837 170.793 52.837 172.436C52.837 174.06 52.557 175.591 51.997 177.028C51.437 178.447 50.6343 179.697 49.589 180.78C48.5436 181.863 47.2836 182.712 45.809 183.328C44.353 183.925 42.7196 184.224 40.909 184.224ZM41.161 181.732C42.505 181.732 43.7276 181.499 44.829 181.032C45.9303 180.547 46.8636 179.884 47.629 179.044C48.3943 178.185 48.9823 177.205 49.393 176.104C49.8036 175.003 50.009 173.836 50.009 172.604C50.009 171.428 49.757 170.401 49.253 169.524C48.749 168.628 48.0023 167.928 47.013 167.424C46.0236 166.92 44.8103 166.668 43.373 166.668C42.0103 166.668 40.7783 166.911 39.677 167.396C38.5943 167.863 37.661 168.525 36.877 169.384C36.1116 170.224 35.5236 171.195 35.113 172.296C34.7023 173.397 34.497 174.564 34.497 175.796C34.497 176.972 34.749 178.008 35.253 178.904C35.7756 179.781 36.5223 180.472 37.493 180.976C38.4823 181.48 39.705 181.732 41.161 181.732ZM59.0447 184L62.5727 166.108L63.1327 166.836H55.7967L56.2727 164.4H72.4287L71.9527 166.836H64.5047L65.3447 166.108L61.8167 184H59.0447ZM81.1863 184.224C79.245 184.224 77.5836 183.879 76.2023 183.188C74.821 182.497 73.7663 181.536 73.0383 180.304C72.329 179.053 71.9743 177.607 71.9743 175.964C71.9743 174.34 72.2543 172.819 72.8143 171.4C73.3743 169.963 74.177 168.703 75.2223 167.62C76.2676 166.537 77.5183 165.697 78.9743 165.1C80.4303 164.484 82.0636 164.176 83.8743 164.176C85.8343 164.176 87.505 164.521 88.8863 165.212C90.2676 165.903 91.313 166.873 92.0223 168.124C92.7503 169.356 93.1143 170.793 93.1143 172.436C93.1143 174.06 92.8343 175.591 92.2743 177.028C91.7143 178.447 90.9116 179.697 89.8663 180.78C88.821 181.863 87.561 182.712 86.0863 183.328C84.6303 183.925 82.997 184.224 81.1863 184.224ZM81.4383 181.732C82.7823 181.732 84.005 181.499 85.1063 181.032C86.2076 180.547 87.141 179.884 87.9063 179.044C88.6716 178.185 89.2596 177.205 89.6703 176.104C90.081 175.003 90.2863 173.836 90.2863 172.604C90.2863 171.428 90.0343 170.401 89.5303 169.524C89.0263 168.628 88.2796 167.928 87.2903 167.424C86.301 166.92 85.0876 166.668 83.6503 166.668C82.2876 166.668 81.0556 166.911 79.9543 167.396C78.8716 167.863 77.9383 168.525 77.1543 169.384C76.389 170.224 75.801 171.195 75.3903 172.296C74.9796 173.397 74.7743 174.564 74.7743 175.796C74.7743 176.972 75.0263 178.008 75.5303 178.904C76.053 179.781 76.7996 180.472 77.7703 180.976C78.7596 181.48 79.9823 181.732 81.4383 181.732ZM95.4794 184L99.3994 164.4H108.079C110.039 164.4 111.561 164.764 112.643 165.492C113.726 166.22 114.267 167.293 114.267 168.712C114.267 169.944 113.959 170.989 113.343 171.848C112.746 172.688 111.962 173.323 110.991 173.752C110.021 174.181 108.994 174.396 107.911 174.396L108.555 173.584C110.011 173.584 111.187 173.948 112.083 174.676C112.979 175.404 113.427 176.468 113.427 177.868C113.427 179.212 113.073 180.341 112.363 181.256C111.673 182.171 110.683 182.861 109.395 183.328C108.126 183.776 106.633 184 104.915 184H95.4794ZM98.7274 181.732H105.111C106.866 181.732 108.229 181.405 109.199 180.752C110.17 180.099 110.655 179.147 110.655 177.896C110.655 176.907 110.301 176.216 109.591 175.824C108.882 175.413 107.874 175.208 106.567 175.208H99.5674L100.015 172.94H106.203C107.23 172.94 108.126 172.8 108.891 172.52C109.675 172.24 110.282 171.82 110.711 171.26C111.141 170.7 111.355 170 111.355 169.16C111.355 168.301 111.019 167.676 110.347 167.284C109.675 166.873 108.723 166.668 107.491 166.668H101.723L98.7274 181.732ZM127.675 171.232C131.95 171.232 134.087 172.977 134.087 176.468C134.087 177.999 133.714 179.333 132.967 180.472C132.22 181.592 131.156 182.46 129.775 183.076C128.394 183.692 126.77 184 124.903 184H116.783L120.703 164.4H123.475L122.103 171.232H127.675ZM125.211 181.788C126.443 181.788 127.507 181.592 128.403 181.2C129.299 180.789 129.99 180.211 130.475 179.464C130.979 178.699 131.231 177.793 131.231 176.748C131.231 175.591 130.895 174.751 130.223 174.228C129.551 173.705 128.487 173.444 127.031 173.444H121.655L120.003 181.788H125.211ZM136.523 184L140.443 164.4H143.243L139.323 184H136.523ZM150.09 172.856H160.17L159.694 175.236H149.614L150.09 172.856ZM148.578 181.564H160.03L159.554 184H145.302L149.222 164.4H163.054L162.578 166.836H151.518L148.578 181.564ZM171.443 184L175.363 164.4H192.247L188.327 184H185.583L189.111 166.108L189.643 166.836H176.903L177.743 166.108L174.215 184H171.443ZM194.355 184L198.275 164.4H205.555C207.851 164.4 209.624 164.904 210.875 165.912C212.126 166.92 212.751 168.329 212.751 170.14C212.751 171.801 212.378 173.229 211.631 174.424C210.903 175.6 209.848 176.505 208.467 177.14C207.086 177.756 205.452 178.064 203.567 178.064H197.127L198.611 176.72L197.155 184H194.355ZM198.555 177.028L197.575 175.628H203.623C205.62 175.628 207.17 175.189 208.271 174.312C209.391 173.416 209.951 172.109 209.951 170.392C209.951 169.216 209.55 168.329 208.747 167.732C207.944 167.135 206.796 166.836 205.303 166.836H199.395L200.879 165.408L198.555 177.028ZM224.167 184.224C222.225 184.224 220.564 183.879 219.183 183.188C217.801 182.497 216.747 181.536 216.019 180.304C215.309 179.053 214.955 177.607 214.955 175.964C214.955 174.34 215.235 172.819 215.795 171.4C216.355 169.963 217.157 168.703 218.203 167.62C219.248 166.537 220.499 165.697 221.955 165.1C223.411 164.484 225.044 164.176 226.855 164.176C228.815 164.176 230.485 164.521 231.867 165.212C233.248 165.903 234.293 166.873 235.003 168.124C235.731 169.356 236.095 170.793 236.095 172.436C236.095 174.06 235.815 175.591 235.255 177.028C234.695 178.447 233.892 179.697 232.847 180.78C231.801 181.863 230.541 182.712 229.067 183.328C227.611 183.925 225.977 184.224 224.167 184.224ZM224.419 181.732C225.763 181.732 226.985 181.499 228.087 181.032C229.188 180.547 230.121 179.884 230.887 179.044C231.652 178.185 232.24 177.205 232.651 176.104C233.061 175.003 233.267 173.836 233.267 172.604C233.267 171.428 233.015 170.401 232.511 169.524C232.007 168.628 231.26 167.928 230.271 167.424C229.281 166.92 228.068 166.668 226.631 166.668C225.268 166.668 224.036 166.911 222.935 167.396C221.852 167.863 220.919 168.525 220.135 169.384C219.369 170.224 218.781 171.195 218.371 172.296C217.96 173.397 217.755 174.564 217.755 175.796C217.755 176.972 218.007 178.008 218.511 178.904C219.033 179.781 219.78 180.472 220.751 180.976C221.74 181.48 222.963 181.732 224.419 181.732ZM243.36 172.856H253.44L252.964 175.236H242.884L243.36 172.856ZM241.848 181.564H253.3L252.824 184H238.572L242.492 164.4H256.324L255.848 166.836H244.788L241.848 181.564ZM257.193 184L261.113 164.4H263.913L259.993 184H257.193ZM260.889 175.348L261.337 172.912H267.693L267.245 175.348H260.889ZM270.605 184L265.369 174.312L267.721 173.024L273.601 184H270.605ZM267.749 174.452L265.089 174.088L274.049 164.4H277.213L267.749 174.452ZM280.283 184L283.811 166.108L284.371 166.836H277.035L277.511 164.4H293.667L293.191 166.836H285.743L286.583 166.108L283.055 184H280.283ZM304.042 171.232C308.317 171.232 310.454 172.977 310.454 176.468C310.454 177.999 310.081 179.333 309.334 180.472C308.587 181.592 307.523 182.46 306.142 183.076C304.761 183.692 303.137 184 301.27 184H293.15L297.07 164.4H299.842L298.47 171.232H304.042ZM301.578 181.788C302.81 181.788 303.874 181.592 304.77 181.2C305.666 180.789 306.357 180.211 306.842 179.464C307.346 178.699 307.598 177.793 307.598 176.748C307.598 175.591 307.262 174.751 306.59 174.228C305.918 173.705 304.854 173.444 303.398 173.444H298.022L296.37 181.788H301.578ZM312.89 184L316.81 164.4H319.61L315.69 184H312.89ZM29.868 216.684L33.032 200.836H24.436L23.428 205.064C23.1107 206.445 22.7653 207.761 22.392 209.012C22.0373 210.263 21.6453 211.392 21.216 212.4C20.8053 213.408 20.3387 214.239 19.816 214.892C19.312 215.527 18.7427 215.928 18.108 216.096L14.944 215.564C15.672 215.62 16.3347 215.368 16.932 214.808C17.5293 214.248 18.0707 213.464 18.556 212.456C19.0413 211.448 19.4893 210.272 19.9 208.928C20.3107 207.584 20.6933 206.137 21.048 204.588L22.532 198.4H36.28L32.612 216.684H29.868ZM13.04 222.284L14.412 215.564H35.72L34.376 222.284H31.8L32.64 218H16.512L15.616 222.284H13.04ZM48.5926 218.224C46.6512 218.224 44.9899 217.879 43.6086 217.188C42.2272 216.497 41.1726 215.536 40.4446 214.304C39.7352 213.053 39.3806 211.607 39.3806 209.964C39.3806 208.34 39.6606 206.819 40.2206 205.4C40.7806 203.963 41.5832 202.703 42.6286 201.62C43.6739 200.537 44.9246 199.697 46.3806 199.1C47.8366 198.484 49.4699 198.176 51.2806 198.176C53.2406 198.176 54.9112 198.521 56.2926 199.212C57.6739 199.903 58.7192 200.873 59.4286 202.124C60.1566 203.356 60.5206 204.793 60.5206 206.436C60.5206 208.06 60.2406 209.591 59.6806 211.028C59.1206 212.447 58.3179 213.697 57.2726 214.78C56.2272 215.863 54.9672 216.712 53.4926 217.328C52.0366 217.925 50.4032 218.224 48.5926 218.224ZM48.8446 215.732C50.1886 215.732 51.4112 215.499 52.5126 215.032C53.6139 214.547 54.5472 213.884 55.3126 213.044C56.0779 212.185 56.6659 211.205 57.0766 210.104C57.4872 209.003 57.6926 207.836 57.6926 206.604C57.6926 205.428 57.4406 204.401 56.9366 203.524C56.4326 202.628 55.6859 201.928 54.6966 201.424C53.7072 200.92 52.4939 200.668 51.0566 200.668C49.6939 200.668 48.4619 200.911 47.3606 201.396C46.2779 201.863 45.3446 202.525 44.5606 203.384C43.7952 204.224 43.2072 205.195 42.7966 206.296C42.3859 207.397 42.1806 208.564 42.1806 209.796C42.1806 210.972 42.4326 212.008 42.9366 212.904C43.4592 213.781 44.2059 214.472 45.1766 214.976C46.1659 215.48 47.3886 215.732 48.8446 215.732ZM62.9977 218L66.9177 198.4H69.1857L75.0657 213.24L73.8617 213.212L85.3697 198.4H87.7777L83.8577 218H81.1697L84.2777 202.544L84.9777 202.6L74.7577 215.62H73.4697L68.1777 202.544L68.7657 202.628L65.6857 218H62.9977ZM99.5066 218.224C97.5653 218.224 95.904 217.879 94.5226 217.188C93.1413 216.497 92.0866 215.536 91.3586 214.304C90.6493 213.053 90.2946 211.607 90.2946 209.964C90.2946 208.34 90.5746 206.819 91.1346 205.4C91.6946 203.963 92.4973 202.703 93.5426 201.62C94.588 200.537 95.8386 199.697 97.2946 199.1C98.7506 198.484 100.384 198.176 102.195 198.176C104.155 198.176 105.825 198.521 107.207 199.212C108.588 199.903 109.633 200.873 110.343 202.124C111.071 203.356 111.435 204.793 111.435 206.436C111.435 208.06 111.155 209.591 110.595 211.028C110.035 212.447 109.232 213.697 108.187 214.78C107.141 215.863 105.881 216.712 104.407 217.328C102.951 217.925 101.317 218.224 99.5066 218.224ZM99.7586 215.732C101.103 215.732 102.325 215.499 103.427 215.032C104.528 214.547 105.461 213.884 106.227 213.044C106.992 212.185 107.58 211.205 107.991 210.104C108.401 209.003 108.607 207.836 108.607 206.604C108.607 205.428 108.355 204.401 107.851 203.524C107.347 202.628 106.6 201.928 105.611 201.424C104.621 200.92 103.408 200.668 101.971 200.668C100.608 200.668 99.376 200.911 98.2746 201.396C97.192 201.863 96.2586 202.525 95.4746 203.384C94.7093 204.224 94.1213 205.195 93.7106 206.296C93.3 207.397 93.0946 208.564 93.0946 209.796C93.0946 210.972 93.3466 212.008 93.8506 212.904C94.3733 213.781 95.12 214.472 96.0906 214.976C97.08 215.48 98.3026 215.732 99.7586 215.732ZM113.8 218L117.72 198.4H126.4C128.36 198.4 129.881 198.764 130.964 199.492C132.046 200.22 132.588 201.293 132.588 202.712C132.588 203.944 132.28 204.989 131.664 205.848C131.066 206.688 130.282 207.323 129.312 207.752C128.341 208.181 127.314 208.396 126.232 208.396L126.876 207.584C128.332 207.584 129.508 207.948 130.404 208.676C131.3 209.404 131.748 210.468 131.748 211.868C131.748 213.212 131.393 214.341 130.684 215.256C129.993 216.171 129.004 216.861 127.716 217.328C126.446 217.776 124.953 218 123.236 218H113.8ZM117.048 215.732H123.432C125.186 215.732 126.549 215.405 127.52 214.752C128.49 214.099 128.976 213.147 128.976 211.896C128.976 210.907 128.621 210.216 127.912 209.824C127.202 209.413 126.194 209.208 124.888 209.208H117.888L118.336 206.94H124.524C125.55 206.94 126.446 206.8 127.212 206.52C127.996 206.24 128.602 205.82 129.032 205.26C129.461 204.7 129.676 204 129.676 203.16C129.676 202.301 129.34 201.676 128.668 201.284C127.996 200.873 127.044 200.668 125.812 200.668H120.044L117.048 215.732Z" fill="#132244"/>
<g clip-path="url(#clip0_0_1)">
<path d="M11.6494 55.2129H29.5269L15.3647 126.116H30.9657L47.7692 42.1328H14.2856L11.6494 55.2129Z" fill="#DB3726"/>
<path d="M94.5056 44.9841C90.6413 43.0833 86.109 42.1328 80.9138 42.1328C75.0197 42.1328 69.7269 43.4326 65.0404 46.027C60.3488 48.6266 56.6746 52.1715 54.0128 56.672C51.3509 61.1724 50.02 66.238 50.02 71.879C50.02 76.4411 51.0786 80.4484 53.206 83.9008C55.3283 87.3532 58.3395 90.0299 62.2347 91.9308C66.1298 93.8316 70.6467 94.7821 75.7802 94.7821C81.6743 94.7821 86.9826 93.4823 91.6999 90.8878C96.4172 88.2934 100.096 84.7434 102.727 80.2429C105.358 75.7476 106.674 70.6768 106.674 65.041C106.674 60.4789 105.61 56.4768 103.488 53.0192C101.366 49.5617 98.3699 46.885 94.5056 44.9841ZM89.7575 74.4426C88.4882 76.9754 86.7154 78.9585 84.4338 80.3816C82.1522 81.8047 79.588 82.5188 76.736 82.5188C73.0619 82.5188 70.1945 81.5067 68.1339 79.4774C66.0733 77.4481 65.0455 74.6944 65.0455 71.2112C65.0455 67.918 65.6776 65.005 66.9468 62.4671C68.2161 59.9343 69.9889 57.9512 72.2705 56.5281C74.5521 55.105 77.1471 54.3909 80.0659 54.3909C83.7401 54.3909 86.592 55.403 88.6218 57.4323C90.6516 59.4617 91.6639 62.2154 91.6639 65.6986C91.6588 68.9969 91.0216 71.9098 89.7575 74.4426Z" fill="#DB3726"/>
<path d="M158.667 44.9841C154.803 43.0833 150.271 42.1328 145.075 42.1328C139.181 42.1328 133.888 43.4326 129.202 46.027C124.51 48.6266 120.836 52.1715 118.174 56.672C115.513 61.1724 114.182 66.238 114.182 71.879C114.182 76.4411 115.24 80.4484 117.368 83.9008C119.49 87.3532 122.501 90.0299 126.396 91.9308C130.291 93.8316 134.808 94.7821 139.942 94.7821C145.836 94.7821 151.139 93.4823 155.861 90.8878C160.579 88.2934 164.258 84.7434 166.889 80.2429C169.52 75.7476 170.836 70.6768 170.836 65.041C170.836 60.4789 169.772 56.4768 167.65 53.0192C165.527 49.5617 162.532 46.885 158.667 44.9841ZM153.914 74.4426C152.645 76.9754 150.872 78.9585 148.59 80.3816C146.309 81.8047 143.744 82.5188 140.893 82.5188C137.218 82.5188 134.351 81.5067 132.29 79.4774C130.23 77.4481 129.202 74.6944 129.202 71.2112C129.202 67.918 129.834 65.005 131.103 62.4671C132.373 59.9343 134.145 57.9512 136.427 56.5281C138.709 55.105 141.304 54.3909 144.222 54.3909C147.897 54.3909 150.749 55.403 152.778 57.4323C154.808 59.4617 155.82 62.2154 155.82 65.6986C155.815 68.9969 155.183 71.9098 153.914 74.4426Z" fill="#DB3726"/>
<path d="M231.806 53.0141C229.684 49.5617 226.688 46.885 222.823 44.9841C218.959 43.0833 214.427 42.1328 209.232 42.1328C203.338 42.1328 198.045 43.4326 193.358 46.027C188.667 48.6266 184.992 52.1715 182.331 56.672C179.669 61.1724 178.338 66.238 178.338 71.879C178.338 76.4411 179.396 80.4484 181.524 83.9008C183.646 87.3532 186.657 90.0299 190.553 91.9308C194.448 93.8316 198.965 94.7821 204.098 94.7821C209.992 94.7821 215.3 93.4823 220.018 90.8878C224.735 88.2934 228.414 84.7434 231.045 80.2429C233.676 75.7476 234.992 70.6768 234.992 65.041C234.992 60.4737 233.928 56.4665 231.806 53.0141ZM218.07 74.4426C216.801 76.9754 215.028 78.9585 212.747 80.3816C210.465 81.8047 207.901 82.5188 205.049 82.5188C201.375 82.5188 198.507 81.5067 196.447 79.4774C194.386 77.4481 193.358 74.6944 193.358 71.2112C193.358 67.918 193.99 65.005 195.26 62.4671C196.529 59.9343 198.302 57.9512 200.583 56.5281C202.865 55.105 205.465 54.3909 208.379 54.3909C212.053 54.3909 214.905 55.403 216.935 57.4323C218.964 59.4617 219.977 62.2154 219.977 65.6986C219.971 68.9969 219.339 71.9098 218.07 74.4426Z" fill="#DB3726"/>
<path d="M62.3938 105.864L58.3907 125.807H52.6046L55.5696 110.611H47.3015L44.3365 125.807H38.5503L42.5585 105.864H62.3938Z" fill="#142244"/>
<path d="M83.4728 106.645C84.7935 107.364 85.8469 108.391 86.6229 109.743C87.4039 111.089 87.7893 112.676 87.7893 114.505C87.7893 116.704 87.3012 118.687 86.3248 120.454C85.3485 122.222 84.0175 123.604 82.3372 124.605C80.6568 125.607 78.7915 126.106 76.736 126.106C73.6939 126.106 71.546 125.119 70.287 123.141L68.324 133H62.5378L67.9489 105.869H73.437L73.031 107.831C74.6857 106.326 76.7257 105.571 79.1512 105.571C80.7082 105.566 82.1471 105.925 83.4728 106.645ZM79.1152 120.49C80.0042 119.935 80.6979 119.16 81.1913 118.173C81.6846 117.187 81.9312 116.046 81.9312 114.762C81.9312 113.406 81.5304 112.327 80.7288 111.536C79.9271 110.744 78.8069 110.349 77.3732 110.349C76.2633 110.349 75.2612 110.626 74.3722 111.181C73.4832 111.736 72.7895 112.512 72.2962 113.498C71.8029 114.484 71.5562 115.625 71.5562 116.909C71.5562 118.271 71.9519 119.345 72.7433 120.136C73.5346 120.927 74.6446 121.322 76.0783 121.322C77.2088 121.322 78.2262 121.045 79.1152 120.49Z" fill="#142244"/>
<path d="M94.9269 124.991C93.4058 124.251 92.2342 123.208 91.4069 121.857C90.5796 120.511 90.1633 118.949 90.1633 117.166C90.1633 114.967 90.6823 112.989 91.7204 111.237C92.7584 109.486 94.1921 108.098 96.0214 107.086C97.8508 106.074 99.9165 105.566 102.214 105.566C104.238 105.566 106.006 105.936 107.517 106.675C109.022 107.415 110.194 108.463 111.021 109.809C111.849 111.155 112.265 112.717 112.265 114.5C112.265 116.699 111.751 118.677 110.728 120.429C109.701 122.186 108.267 123.568 106.427 124.58C104.588 125.592 102.517 126.1 100.215 126.1C98.2105 126.105 96.4479 125.73 94.9269 124.991ZM103.586 120.49C104.475 119.935 105.168 119.16 105.662 118.173C106.155 117.187 106.402 116.046 106.402 114.762C106.402 113.406 106.006 112.327 105.215 111.535C104.423 110.744 103.313 110.349 101.88 110.349C100.744 110.349 99.7264 110.626 98.8374 111.181C97.9484 111.736 97.2547 112.512 96.7614 113.498C96.2681 114.484 96.0214 115.625 96.0214 116.909C96.0214 118.271 96.4222 119.344 97.2239 120.136C98.0255 120.927 99.1457 121.322 100.579 121.322C101.695 121.322 102.697 121.045 103.586 120.49Z" fill="#142244"/>
<path d="M135.584 117.392H120.307C120.502 120.11 122.224 121.471 125.461 121.471C126.473 121.471 127.444 121.312 128.369 120.988C129.294 120.67 130.106 120.213 130.8 119.617L133.21 123.434C132.1 124.323 130.826 124.991 129.392 125.438C127.958 125.885 126.448 126.105 124.87 126.105C122.82 126.105 121.021 125.741 119.474 125.011C117.928 124.282 116.741 123.239 115.913 121.877C115.086 120.521 114.67 118.949 114.67 117.171C114.67 114.972 115.168 112.989 116.17 111.222C117.172 109.455 118.56 108.073 120.343 107.071C122.121 106.069 124.151 105.571 126.422 105.571C128.349 105.571 130.024 105.93 131.447 106.645C132.871 107.364 133.971 108.386 134.747 109.722C135.522 111.058 135.913 112.604 135.913 114.356C135.913 115.265 135.805 116.283 135.584 117.392ZM122.717 111.001C121.776 111.731 121.108 112.738 120.713 114.022H130.61C130.61 112.738 130.209 111.731 129.402 111.001C128.601 110.272 127.516 109.907 126.16 109.907C124.803 109.907 123.657 110.272 122.717 111.001Z" fill="#142244"/>
<path d="M153.045 115.799L158.533 125.807H151.858L148.261 118.245H144.998L143.477 125.807H137.696L141.699 105.864H147.48L145.928 113.611H148.929L155.938 105.864H162.238L153.045 115.799Z" fill="#142244"/>
<path d="M181.036 110.611H174.253L171.288 125.807H165.502L168.467 110.611H161.797L162.758 105.864H182.002L181.036 110.611Z" fill="#142244"/>
<path d="M185.393 124.991C183.872 124.251 182.701 123.208 181.873 121.857C181.046 120.511 180.63 118.949 180.63 117.166C180.63 114.967 181.149 112.989 182.187 111.237C183.225 109.486 184.659 108.098 186.488 107.086C188.317 106.074 190.383 105.566 192.68 105.566C194.705 105.566 196.472 105.936 197.983 106.675C199.489 107.415 200.66 108.463 201.488 109.809C202.315 111.155 202.731 112.717 202.731 114.5C202.731 116.699 202.217 118.677 201.195 120.429C200.167 122.186 198.733 123.568 196.894 124.58C195.054 125.592 192.983 126.1 190.681 126.1C188.677 126.105 186.914 125.73 185.393 124.991ZM194.052 120.49C194.941 119.935 195.635 119.16 196.128 118.173C196.621 117.187 196.868 116.046 196.868 114.762C196.868 113.406 196.472 112.327 195.681 111.535C194.89 110.744 193.775 110.349 192.346 110.349C191.21 110.349 190.198 110.626 189.304 111.181C188.415 111.736 187.721 112.512 187.228 113.498C186.735 114.484 186.488 115.625 186.488 116.909C186.488 118.271 186.889 119.344 187.69 120.136C188.492 120.927 189.612 121.322 191.046 121.322C192.161 121.322 193.163 121.045 194.052 120.49Z" fill="#142244"/>
<path d="M224.679 119.581C224.679 121.507 223.882 123.028 222.289 124.138C220.696 125.247 218.466 125.807 215.599 125.807H204.699L208.703 105.864H218.713C221.01 105.864 222.772 106.269 223.995 107.086C225.218 107.903 225.83 109.074 225.83 110.605C225.83 111.715 225.496 112.702 224.828 113.554C224.16 114.407 223.219 115.055 222.012 115.502C223.785 116.221 224.679 117.577 224.679 119.581ZM218.394 121.173C219.047 120.706 219.376 120.074 219.376 119.283C219.376 118.666 219.16 118.209 218.728 117.911C218.296 117.613 217.634 117.464 216.745 117.464H211.703L210.814 121.877H215.707C216.842 121.877 217.736 121.641 218.394 121.173ZM212.366 114.058H216.739C217.777 114.058 218.615 113.832 219.262 113.369C219.905 112.912 220.229 112.311 220.229 111.571C220.229 110.359 219.35 109.753 217.598 109.753H213.225L212.366 114.058Z" fill="#142244"/>
<path d="M216.446 17.2004L219.16 3.66305H211.632L209.854 12.5509L192.038 0L0 35.2536L190.357 8.39984L249 40.1343L216.446 17.2004Z" fill="#142244"/>
</g>
<defs>
<clipPath id="clip0_0_1">
<rect width="249" height="133" fill="white"/>
</clipPath>
</defs>
</svg>
