<svg width="81" height="141" viewBox="0 0 81 141" fill="none" xmlns="http://www.w3.org/2000/svg">
<g clip-path="url(#clip0_70_19)">
<path d="M55.584 102.592C55.3209 102.592 55.1043 102.654 54.9031 102.779C54.7019 102.904 54.5471 103.075 54.4388 103.309C54.3305 103.527 54.2686 103.792 54.2686 104.089C54.2686 104.401 54.3614 104.635 54.5471 104.822C54.7328 105.009 54.9804 105.087 55.3054 105.087C55.5531 105.087 55.7852 105.024 55.9864 104.9C56.1876 104.775 56.3423 104.603 56.4507 104.369C56.559 104.151 56.6209 103.886 56.6209 103.59C56.6209 103.278 56.528 103.044 56.3578 102.857C56.1566 102.685 55.909 102.592 55.584 102.592Z" fill="#F5F5F5"/>
<path d="M29.6617 102.592C29.414 102.592 29.1819 102.654 28.9807 102.779C28.7795 102.904 28.6248 103.075 28.5164 103.309C28.4081 103.527 28.3462 103.792 28.3462 104.089C28.3462 104.401 28.439 104.635 28.6093 104.822C28.795 105.009 29.0426 105.087 29.3676 105.087C29.6307 105.087 29.8474 105.024 30.0486 104.9C30.2497 104.775 30.4045 104.603 30.5128 104.369C30.6212 104.151 30.6831 103.886 30.6831 103.59C30.6831 103.278 30.5902 103.044 30.4045 102.857C30.2343 102.685 29.9866 102.592 29.6617 102.592Z" fill="#F5F5F5"/>
<path d="M43.977 96.2609C44.627 96.2609 45.1996 96.105 45.7103 95.7775C46.221 95.4501 46.6234 94.9979 46.9174 94.4209C47.196 93.844 47.3507 93.1891 47.3507 92.4406C47.3507 91.6453 47.1186 91.0216 46.6698 90.5694C46.2055 90.1016 45.571 89.8833 44.7353 89.8833C44.0853 89.8833 43.4972 90.0392 42.971 90.3667C42.4448 90.6941 42.0579 91.1463 41.7639 91.7233C41.4853 92.3002 41.3306 92.9552 41.3306 93.7036C41.3306 94.4989 41.5627 95.1226 42.027 95.5748C42.5067 96.0426 43.1567 96.2609 43.977 96.2609Z" fill="#F5F5F5"/>
<path d="M35.1866 102.592C34.9235 102.592 34.7068 102.654 34.5056 102.779C34.3044 102.904 34.1497 103.075 34.0413 103.309C33.933 103.527 33.8711 103.792 33.8711 104.089C33.8711 104.401 33.964 104.635 34.1497 104.822C34.3354 105.009 34.583 105.087 34.908 105.087C35.1556 105.087 35.3877 105.024 35.5889 104.9C35.7901 104.775 35.9449 104.603 36.0532 104.369C36.1615 104.136 36.2234 103.886 36.2234 103.59C36.2234 103.278 36.1306 103.044 35.9604 102.857C35.7901 102.67 35.5116 102.592 35.1866 102.592Z" fill="#F5F5F5"/>
<path d="M40.665 102.482C40.3555 102.482 40.0924 102.56 39.8912 102.732C39.6745 102.903 39.5352 103.122 39.4424 103.418H41.6709C41.6709 103.122 41.5781 102.903 41.3924 102.732C41.2066 102.576 40.9745 102.482 40.665 102.482Z" fill="#F5F5F5"/>
<path d="M61.078 104.213H59.9483L59.7471 105.211H60.8459C61.109 105.211 61.3101 105.165 61.4494 105.055C61.6042 104.946 61.6661 104.806 61.6661 104.619C61.6661 104.478 61.6197 104.369 61.5268 104.307C61.434 104.245 61.2792 104.213 61.078 104.213Z" fill="#F5F5F5"/>
<path d="M59.2055 89.8677C58.5555 89.8677 57.9674 90.0236 57.4412 90.3511C56.9305 90.6785 56.5282 91.1307 56.2341 91.7077C55.9555 92.2846 55.8008 92.9395 55.8008 93.688C55.8008 94.4833 56.0329 95.107 56.4972 95.5592C56.9615 96.027 57.6115 96.2453 58.4317 96.2453C59.0817 96.2453 59.6543 96.0894 60.165 95.7619C60.6757 95.4344 61.0781 94.9822 61.3721 94.4053C61.6507 93.8283 61.8055 93.1734 61.8055 92.425C61.8055 91.6297 61.5733 91.006 61.1245 90.5538C60.6757 90.1016 60.0257 89.8677 59.2055 89.8677Z" fill="#F5F5F5"/>
<path d="M61.2637 46.7214C61.3102 37.3967 60.3042 2.57711 42.3211 0.503214C38.839 0.113385 35.6355 1.14253 32.8188 3.57507C22.4809 12.51 20.0666 39.034 19.5714 46.7214H0.458496V140.358H80.748V46.7214H61.2637ZM35.8367 7.13032C37.6628 5.5554 39.6128 4.91608 41.7949 5.14998C54.4233 6.60015 56.7602 33.9194 56.6364 46.7214H24.2142C24.8951 36.2428 27.8665 14.0225 35.8367 7.13032ZM15.6869 106.178L18.8749 90.0704H14.8512L15.4393 87.0921H22.9916L19.1999 106.178H15.6869ZM25.3749 106.1H24.0749L24.7404 102.654H22.8832L22.2178 106.1H20.9178L21.8154 101.563H26.288L25.3749 106.1ZM23.5023 93.844C23.5023 92.5653 23.7963 91.4114 24.3999 90.3823C25.0034 89.3531 25.8237 88.5579 26.8915 87.9654C27.9439 87.3728 29.1355 87.0765 30.4665 87.0765C31.6427 87.0765 32.6641 87.2949 33.5307 87.7315C34.3974 88.1681 35.0783 88.7762 35.5581 89.5559C36.0378 90.3355 36.27 91.2555 36.27 92.2847C36.27 93.5633 35.9759 94.7172 35.3878 95.7464C34.7998 96.7755 33.9641 97.5708 32.8962 98.1633C31.8284 98.7558 30.6367 99.0521 29.3058 99.0521C28.1451 99.0521 27.1237 98.8338 26.257 98.3972C25.3749 97.9606 24.6939 97.3525 24.2142 96.5728C23.7344 95.7931 23.5023 94.8887 23.5023 93.844ZM31.6736 104.884C31.4569 105.289 31.1474 105.601 30.776 105.82C30.4046 106.053 29.9712 106.163 29.507 106.163C28.826 106.163 28.3308 105.944 28.0522 105.492L27.6034 107.738H26.3034L27.526 101.578H28.7641L28.6713 102.03C29.0427 101.687 29.507 101.516 30.0486 101.516C30.4046 101.516 30.7296 101.594 31.0236 101.765C31.3177 101.921 31.5653 102.155 31.7355 102.467C31.9057 102.779 31.9986 103.138 31.9986 103.543C32.0141 104.026 31.9057 104.479 31.6736 104.884ZM37.1831 104.884C36.9509 105.289 36.6259 105.601 36.2081 105.82C35.7902 106.053 35.3259 106.163 34.8152 106.163C34.3664 106.163 33.9641 106.085 33.6236 105.913C33.2831 105.742 33.02 105.508 32.8343 105.196C32.6486 104.884 32.5557 104.541 32.5557 104.135C32.5557 103.636 32.6795 103.184 32.9117 102.794C33.1438 102.389 33.4688 102.077 33.8867 101.859C34.3045 101.625 34.7688 101.516 35.2795 101.516C35.7438 101.516 36.1307 101.594 36.4712 101.765C36.8116 101.937 37.0747 102.171 37.2604 102.483C37.4462 102.794 37.539 103.138 37.539 103.543C37.5235 104.026 37.4152 104.479 37.1831 104.884ZM42.7854 104.182H39.3342C39.3807 104.806 39.7676 105.102 40.4949 105.102C40.7271 105.102 40.9437 105.071 41.1449 104.993C41.3616 104.915 41.5318 104.822 41.6866 104.681L42.2437 105.57C41.9961 105.773 41.7021 105.929 41.3771 106.022C41.0521 106.116 40.7116 106.178 40.3556 106.178C39.8914 106.178 39.489 106.1 39.133 105.929C38.7771 105.757 38.514 105.523 38.3283 105.211C38.1426 104.9 38.0497 104.541 38.0497 104.135C38.0497 103.636 38.1581 103.184 38.3902 102.779C38.6223 102.373 38.9319 102.062 39.3342 101.843C39.7366 101.625 40.1854 101.5 40.7116 101.5C41.1449 101.5 41.5163 101.578 41.8413 101.75C42.1663 101.906 42.414 102.14 42.5842 102.451C42.7544 102.748 42.8473 103.106 42.8473 103.512C42.8628 103.714 42.8318 103.933 42.7854 104.182ZM37.9569 93.844C37.9569 92.5653 38.2509 91.4114 38.8545 90.3823C39.458 89.3531 40.2783 88.5579 41.3461 87.9654C42.3985 87.3728 43.5901 87.0765 44.9211 87.0765C46.0972 87.0765 47.1187 87.2949 47.9853 87.7315C48.852 88.1681 49.5329 88.7762 50.0127 89.5559C50.4924 90.3355 50.7246 91.2555 50.7246 92.2847C50.7246 93.5633 50.4305 94.7172 49.8424 95.7464C49.2544 96.7755 48.4186 97.5708 47.3508 98.1633C46.283 98.7558 45.0913 99.0521 43.7604 99.0521C42.5997 99.0521 41.5783 98.8338 40.7116 98.3972C39.8295 97.9606 39.1485 97.3525 38.6688 96.5728C38.2045 95.7931 37.9569 94.8887 37.9569 93.844ZM46.4532 106.1L45.6484 104.385H44.9056L44.5651 106.1H43.2651L44.1627 101.563H45.4627L45.1068 103.325H45.7877L47.3663 101.563H48.7901L46.7163 103.824L47.9544 106.1H46.4532ZM50.8329 106.1H49.5329L50.1984 102.654H48.6972L48.9139 101.578H53.2472L53.0305 102.654H51.4984L50.8329 106.1ZM57.5804 104.884C57.3483 105.289 57.0233 105.601 56.6055 105.82C56.1876 106.053 55.7233 106.163 55.2126 106.163C54.7638 106.163 54.3614 106.085 54.021 105.913C53.6805 105.742 53.4174 105.508 53.2317 105.196C53.046 104.884 52.9531 104.541 52.9531 104.135C52.9531 103.636 53.0769 103.184 53.3091 102.794C53.5412 102.389 53.8662 102.077 54.2841 101.859C54.7019 101.625 55.1662 101.516 55.6769 101.516C56.1412 101.516 56.5281 101.594 56.8685 101.765C57.209 101.937 57.4721 102.171 57.6578 102.483C57.8435 102.794 57.9364 103.138 57.9364 103.543C57.9209 104.026 57.8126 104.479 57.5804 104.884ZM62.9042 103.325C62.7494 103.512 62.5482 103.668 62.2697 103.761C62.6721 103.917 62.8732 104.229 62.8732 104.681C62.8732 105.118 62.6875 105.461 62.3316 105.71C61.9756 105.96 61.4649 106.085 60.8304 106.085H58.3697L59.2673 101.563H61.5268C62.0375 101.563 62.4399 101.656 62.7185 101.843C62.997 102.03 63.1363 102.295 63.1363 102.639C63.1363 102.904 63.0589 103.122 62.9042 103.325ZM64.3125 95.7464C63.7244 96.7755 62.8887 97.5708 61.8209 98.1633C60.753 98.7558 59.5614 99.0521 58.2304 99.0521C57.0697 99.0521 56.0483 98.8338 55.1817 98.3972C54.2995 97.9606 53.6186 97.3525 53.1388 96.5728C52.6591 95.7931 52.4269 94.8731 52.4269 93.844C52.4269 92.5653 52.721 91.4114 53.3245 90.3823C53.9281 89.3531 54.7483 88.5579 55.8162 87.9654C56.8685 87.3728 58.0602 87.0765 59.3911 87.0765C60.5673 87.0765 61.5887 87.2949 62.4554 87.7315C63.322 88.1681 64.003 88.7762 64.4827 89.5559C64.9625 90.3355 65.1946 91.2555 65.1946 92.2847C65.1946 93.5789 64.9006 94.7328 64.3125 95.7464ZM55.1352 79.4203L12.2203 85.5328L55.5221 77.5179L59.5459 80.3715L59.9483 78.3444H61.6506L61.0471 81.4162L68.3827 86.6243L55.1352 79.4203Z" fill="#F5F5F5"/>
<path d="M29.5224 96.2609C30.1724 96.2609 30.745 96.105 31.2557 95.7775C31.7664 95.4501 32.1688 94.9979 32.4628 94.4209C32.7414 93.844 32.8961 93.1891 32.8961 92.4406C32.8961 91.6453 32.664 91.0216 32.2152 90.5694C31.7509 90.1016 31.1164 89.8833 30.2807 89.8833C29.6307 89.8833 29.0426 90.0392 28.5164 90.3667C27.9902 90.6941 27.6034 91.1463 27.3093 91.7233C27.0307 92.3002 26.876 92.9552 26.876 93.7036C26.876 94.4989 27.1081 95.1226 27.5724 95.5748C28.0367 96.0426 28.6867 96.2609 29.5224 96.2609Z" fill="#F5F5F5"/>
<path d="M61.2792 102.451H60.2887L60.103 103.434H61.0935C61.3256 103.434 61.5113 103.387 61.6661 103.278C61.8054 103.168 61.8828 103.044 61.8828 102.872C61.8673 102.592 61.6661 102.451 61.2792 102.451Z" fill="#F5F5F5"/>
</g>
<defs>
<clipPath id="clip0_70_19">
<rect width="80.2895" height="139.933" fill="white" transform="translate(0.458496 0.425293)"/>
</clipPath>
</defs>
</svg>
