<svg width="59" height="52" viewBox="0 0 59 52" fill="none" xmlns="http://www.w3.org/2000/svg">
<path d="M5.66023 44.6572C5.66142 44.6572 5.66142 44.6572 5.66023 44.6572C5.66023 44.6572 5.66142 44.6572 5.66023 44.6572ZM27.4239 28.4723C27.0908 28.1416 26.7564 27.8097 26.4232 27.479V30.4978C26.4232 37.4286 26.422 44.5877 26.4137 51.6445C27.3101 51.6398 28.2302 51.635 29.1622 51.635C30.023 51.635 30.8933 51.6386 31.7696 51.6468C31.7518 44.7937 31.7577 37.9806 31.766 32.768C30.3135 31.3405 28.8444 29.8823 27.4239 28.4723ZM11.1358 51.648C11.1228 47.8725 11.124 44.0452 11.1252 40.3391V39.2516C9.30036 41.0617 7.56093 42.7871 5.78829 44.5312C5.78829 45.0785 5.78947 45.6258 5.79066 46.173C5.79303 47.9678 5.79659 49.8167 5.78355 51.648C7.51587 51.6268 9.31103 51.6268 11.1358 51.648ZM21.4409 31.5817V29.0114C19.616 30.8214 17.8742 32.5491 16.1016 34.2957C16.1052 39.9754 16.1099 45.84 16.0957 51.6456C16.9221 51.6398 17.8422 51.6339 18.8133 51.6339C19.6635 51.6339 20.5539 51.6374 21.4527 51.648C21.4397 44.9537 21.4409 38.1583 21.4409 31.5817ZM34.7113 19.449C34.0746 19.4454 33.6643 19.0265 33.5292 18.8899C32.4502 17.7907 31.2585 16.6056 29.78 15.158C29.0069 14.4012 28.2302 13.648 27.4548 12.8948C26.5335 12.0003 25.5849 11.08 24.6482 10.1596C16.0957 18.6593 8.25101 26.4445 0.699219 33.9261C1.84106 35.0418 3.12874 36.3105 4.43065 37.6334C7.81822 34.2568 11.2615 30.8379 14.5934 27.5273C17.528 24.6121 20.4626 21.6969 23.3949 18.7781C23.5573 18.6169 23.9878 18.1873 24.6435 18.1873C24.6446 18.1873 24.6446 18.1873 24.6458 18.1873C25.3027 18.1885 25.7319 18.6181 25.8944 18.7805C27.8638 20.7518 29.876 22.7502 31.8217 24.6815C32.7703 25.623 33.7189 26.5657 34.6675 27.5084L53.4254 8.8827L57.3477 12.7806C57.3655 12.6005 57.3845 12.4228 57.4035 12.2463C57.445 11.8615 57.4841 11.499 57.5102 11.1329C57.5932 9.98193 57.726 8.82738 57.854 7.71168C57.9323 7.03142 58.0129 6.32881 58.0805 5.64032C58.1303 5.13072 58.1694 4.60346 58.2062 4.09268C58.2726 3.18529 58.3414 2.24612 58.4801 1.31165C58.4919 1.23044 58.4907 1.10452 58.4896 0.971525C58.4872 0.713782 58.4848 0.371302 58.5773 0.00292969C58.4884 0.0123449 58.3983 0.0229371 58.3093 0.0323524C57.011 0.174758 55.6676 0.323049 54.3336 0.426616C53.2132 0.513708 52.0713 0.629045 50.9674 0.740851L50.5263 0.785573C49.6951 0.869134 48.8533 0.936217 48.0399 1.00212C47.172 1.07156 46.2791 1.14335 45.4017 1.23515L49.5469 5.34491L46.2744 8.592C42.8714 11.9686 39.3522 15.4604 35.9065 18.8947C35.7536 19.0465 35.3492 19.4502 34.7173 19.4502C34.7173 19.449 34.7137 19.449 34.7113 19.449ZM49.8054 51.6315C50.7255 51.6315 51.5769 51.6374 52.3986 51.648C52.3867 41.636 52.3879 31.4687 52.3879 21.6298V18.1214C51.8591 18.6675 51.3184 19.2242 50.7777 19.7691C49.4853 21.0719 48.1691 22.3677 47.0451 23.4693C47.0546 34.2404 47.0546 43.2178 47.0427 51.6456C48.0423 51.6362 48.9541 51.6315 49.8054 51.6315ZM39.4008 51.6339C40.3079 51.6339 41.2031 51.6386 42.0829 51.648C42.0722 45.6199 42.071 39.5023 42.071 33.5813C42.071 31.8536 42.071 30.1247 42.0698 28.397C42.0663 28.4005 42.0627 28.4041 42.0604 28.4076C40.4537 30.0564 38.7878 31.6912 37.1764 33.2729L36.7294 33.7119C36.7413 40.2179 36.7413 46.0942 36.7294 51.648C37.6282 51.6374 38.5198 51.6339 39.4008 51.6339Z" fill="white"/>
</svg>
